%
M48
M72
T01C0.01200
T02C0.01260
T03C0.02362
T04C0.03150
T05C0.03543
T06C0.03800
T07C0.03937
T08C0.04000
T09C0.08000
T10C0.12598
%
T01
X261115Y195714
X226315Y242055
T02
X218304Y233835
X222241Y230390
X200095Y246138
X190253Y249091
X154820Y229898
X142516Y235803
X182871Y166413
X184347Y140823
X202556Y130488
X211906Y130488
X233068Y125075
X264564Y159524
X242910Y177240
X242910Y184130
X237005Y189543
X285725Y205291
X327556Y179701
X296552Y159524
X293599Y130488
X314760Y125075
X349701Y136394
X387103Y150173
X321650Y89642
X299012Y80783
X222241Y73402
X216827Y80291
X206985Y79799
X197635Y79799
X193205Y73894
X157772Y89150
X136611Y113264
X130705Y127043
X110036Y128028
X180902Y124583
X283757Y310606
X287694Y340626
T03
X145961Y219563
T04
X154760Y332260
X164760Y332260
X174760Y332260
X184760Y332260
X194760Y332260
X204760Y332260
X214760Y332260
X224760Y332260
T05
X111512Y186098
X111512Y174287
T06
X110607Y150193
X120607Y150193
X130607Y150193
X140607Y150193
X150607Y150193
X160607Y150193
X170607Y150193
X180607Y150193
X190607Y150193
X200607Y150193
X210607Y150193
X220607Y150193
X230607Y150193
X240607Y150193
X250607Y150193
X260607Y150193
X270607Y150193
X280607Y150193
X290607Y150193
X300607Y150193
X310607Y150193
X320607Y150193
X330607Y150193
X340607Y150193
X290607Y170193
X290607Y210193
X300607Y210193
X310607Y210193
X320607Y210193
X330607Y210193
X340607Y210193
X280607Y210193
X270607Y210193
X260607Y210193
X250607Y210193
X240607Y210193
X230607Y210193
X220607Y210193
X210607Y210193
X200607Y210193
X190607Y210193
X180607Y210193
X170607Y210193
X160607Y210193
X150607Y210193
X140607Y210193
X130607Y210193
X120607Y210193
X110607Y210193
X240607Y170193
T07
X376788Y165764
X376788Y175764
X386788Y175764
X396788Y175764
X406788Y175764
X406788Y165764
X396788Y165764
X386788Y165764
T08
X384150Y201531
X384150Y211531
X384150Y221531
X404327Y221531
X404327Y211531
X404327Y201531
X404327Y241394
X404327Y251394
X404327Y261394
X384150Y261394
X384150Y251394
X384150Y241394
X353638Y248106
X343638Y248106
X333638Y248106
X323638Y248106
X313638Y248106
X303638Y248106
X269465Y248106
X259465Y248106
X249465Y248106
X239465Y248106
X239465Y227929
X249465Y227929
X259465Y227929
X269465Y227929
X269465Y268283
X259465Y268283
X249465Y268283
X239465Y268283
X263422Y297811
X273422Y297811
X303638Y289937
X313638Y289937
X323638Y289937
X333638Y289937
X343638Y289937
X353638Y289937
X384150Y291256
X384150Y301256
X404327Y301256
X404327Y291256
X404327Y281256
X384150Y281256
X353638Y332260
X343638Y332260
X333638Y332260
X323638Y332260
X313638Y332260
X303638Y332260
X273422Y332260
X263422Y332260
X253422Y332260
X243422Y332260
X192457Y237850
X192457Y227850
X182457Y227850
X172457Y227850
X162457Y227850
X162457Y237850
X172457Y237850
X182457Y237850
X154820Y190193
X154820Y170193
X168599Y127831
X168599Y117831
X168599Y107831
X168599Y97831
X168599Y87831
X168599Y77831
X250292Y77831
X250292Y87831
X250292Y97831
X250292Y107831
X250292Y117831
X250292Y127831
X331985Y127831
X331985Y117831
X331985Y107831
X331985Y97831
X331985Y87831
X331985Y77831
T09
X381406Y129504
X399406Y129504
T10
X130705Y85705
X394485Y85705
X394485Y329799
X130705Y329799
M30
