%
M48
M72
T01C0.01378
T02C0.02756
T03C0.03150
T04C0.03200
T05C0.03543
T06C0.03800
T07C0.03937
T08C0.04000
T09C0.04724
T10C0.06299
T11C0.08000
T12C0.16929
%
T01
X103370Y64000
X136343Y54157
X139564Y64000
X142740Y67937
X150614Y58587
X155535Y58587
X160457Y58587
X160457Y50220
X155535Y50220
X150614Y50220
X167839Y54157
X173252Y64000
X187524Y67937
X220988Y67445
X225909Y64000
X233291Y58587
X238213Y58587
X243134Y58587
X250516Y54650
X243134Y50220
X238213Y50220
X233291Y50220
X223449Y54650
X233291Y31520
X233291Y27583
X233291Y23646
X238213Y23646
X238213Y27583
X238213Y31520
X243134Y31520
X243134Y27583
X243134Y23646
X260850Y48744
X277091Y48744
X228370Y104354
X226894Y126500
X218528Y130929
X218528Y144709
X243626Y151598
X258882Y151598
X295299Y138803
X317445Y150122
X306126Y177189
X341559Y193921
X346972Y195398
X297760Y224925
X240181Y253469
X240181Y261835
X213114Y248547
X213114Y244610
X209177Y244610
X205240Y244610
X201303Y244610
X197366Y244610
X193429Y244610
X193429Y248547
X197366Y248547
X201303Y248547
X205240Y248547
X209177Y248547
X186539Y254453
X186047Y239689
X173252Y239689
X186539Y269709
X188508Y273154
X192445Y273154
X196382Y273154
X174728Y272169
X221480Y292839
X221480Y297268
X221480Y301697
X116947Y252976
X73843Y273154
X69413Y277091
X65969Y280535
X53173Y210161
X46776Y210161
X46776Y204256
X46776Y198350
X46776Y179157
X46776Y173252
X46776Y167346
X53173Y167346
X112228Y125516
X153567Y148646
X156520Y129453
X155535Y31520
X155535Y27583
X155535Y23646
X150614Y23646
X150614Y27583
X150614Y31520
X160457Y31520
X160457Y27583
X160457Y23646
X186539Y14295
X340083Y130437
T02
X354459Y271572
X350283Y275748
X346108Y279924
X341932Y284100
X337756Y288276
X333580Y292451
X349328Y308199
X353504Y304024
X357680Y299848
X361856Y295672
X366031Y291496
X370207Y287320
X308199Y349328
X304024Y353504
X299848Y357680
X295672Y361856
X291496Y366031
X287320Y370207
X109381Y370207
X105205Y366031
X101029Y361856
X96853Y357680
X92677Y353504
X88501Y349328
X47373Y308199
X43197Y304024
X39021Y299848
X34845Y295672
X30669Y291496
X26493Y287320
X42242Y271572
X46417Y275748
X50593Y279924
X54769Y284100
X58945Y288276
X63121Y292451
T03
X171776Y198350
X224925Y198350
T04
X301345Y54297
X295777Y48730
X290209Y43162
X284641Y37594
X279074Y32026
X273506Y26459
X218035Y24138
X210161Y24138
X202287Y24138
X194413Y24138
X186539Y24138
X178665Y24138
X123195Y26459
X117627Y32026
X112059Y37594
X106492Y43162
X100924Y48730
X95356Y54297
T05
X98449Y185555
X98449Y211146
X353623Y84430
X361975Y92782
T06
X313429Y96992
X303429Y96992
X293429Y96992
X283429Y96992
X273429Y96992
X263429Y96992
X253429Y96992
X243429Y96992
X233429Y96992
X223429Y96992
X213429Y96992
X203429Y96992
X193429Y96992
X183429Y96992
X173429Y96992
X163429Y96992
X153429Y96992
X143429Y96992
X133429Y96992
X123429Y96992
X113429Y96992
X103429Y96992
X93429Y96992
X83429Y96992
X133429Y106992
X133429Y116992
X133429Y126992
X133429Y136992
X133429Y146992
X133429Y156992
X123429Y156992
X113429Y156992
X103429Y156992
X93429Y156992
X83429Y156992
X143429Y156992
X153429Y156992
X163429Y156992
X173429Y156992
X183429Y156992
X183429Y146992
X183429Y136992
X183429Y126992
X183429Y116992
X183429Y106992
X193429Y156992
X203429Y156992
X213429Y156992
X223429Y156992
X233429Y156992
X243429Y156992
X253429Y156992
X263429Y156992
X273429Y156992
X283429Y156992
X293429Y156992
X303429Y156992
X313429Y156992
T07
X287996Y183350
X287996Y193350
X277996Y193350
X277996Y183350
X277996Y203350
X287996Y203350
X287996Y213350
X277996Y213350
T08
X297678Y269394
X290607Y276465
X283536Y283536
X276465Y290607
X269394Y297678
X277172Y305456
X284243Y298385
X291314Y291314
X298385Y284243
X305456Y277172
X218350Y322772
X208350Y322772
X198350Y322772
X188350Y322772
X178350Y322772
X178350Y333772
X188350Y333772
X198350Y333772
X208350Y333772
X218350Y333772
X213114Y364689
X203114Y363689
X193114Y364689
X183114Y363689
X119529Y305456
X112458Y298385
X120236Y290607
X127307Y297678
X113165Y283536
X106094Y276465
X99023Y269394
X91244Y277172
X98315Y284243
X105387Y291314
X70063Y241165
X60063Y241165
X35991Y230334
X18191Y230334
X18191Y255934
X35991Y255934
T09
X188508Y222957
X208193Y222957
X208193Y173744
X188508Y173744
T10
X180634Y198350
X216067Y198350
T11
X32996Y194697
X32996Y176697
T12
X73350Y73350
X323350Y73350
X323350Y323350
X73350Y323350
M30
