%
M48
M72
T01C0.01378
T02C0.03200
T03C0.03543
T04C0.03800
T05C0.03937
T06C0.04000
T07C0.08000
T08C0.12992
%
T01
X123055Y107850
X126992Y104406
X132898Y104406
X135358Y91610
X143232Y76354
X168331Y112280
X173252Y112280
X193429Y112673
X197366Y100469
X203764Y100469
X215083Y104406
X220988Y90134
X210161Y87181
X225909Y75862
X252976Y90626
X263311Y104406
X217543Y149681
X223941Y163953
X232799Y163953
X246579Y164445
X268232Y157555
X276598Y163953
X296776Y161000
X300713Y171039
X333685Y178717
X338114Y171335
X334669Y167890
X198350Y202467
X182602Y174287
X195890Y160508
X158980Y163953
X144709Y167398
X144709Y171827
X138311Y163953
X134374Y163953
X127484Y163953
X148646Y147713
X100417Y153618
X93035Y150173
X95988Y146728
X91067Y162476
X100909Y173795
X136343Y214642
X132406Y219071
X133390Y287476
X127976Y287476
X22661Y214642
X19709Y191020
T02
X95848Y96671
X101416Y91104
X106984Y85536
X112552Y79968
X118119Y74400
X123687Y68833
X178665Y65528
X186539Y65528
X194413Y65528
X202287Y65528
X210161Y65528
X218035Y65528
X273506Y67848
X279074Y73416
X284641Y78984
X290209Y84552
X295777Y90119
X301345Y95687
X373687Y325230
X368119Y330798
X362552Y336366
X356984Y341933
X351416Y347501
X345848Y353069
X311679Y387238
X306111Y392806
X300544Y398374
X294976Y403941
X289408Y409509
X283840Y415077
X252976Y425272
X245102Y425272
X237228Y425272
X229354Y425272
X221480Y425272
X213606Y425272
X182602Y425272
X174728Y425272
X166854Y425272
X158980Y425272
X151106Y425272
X143232Y425272
X112860Y415077
X107293Y409509
X101725Y403941
X96157Y398374
X90589Y392806
X85022Y387238
X50852Y353069
X45285Y347501
X39717Y341933
X34149Y336366
X28581Y330798
X23014Y325230
T03
X364942Y137139
X373294Y145491
T04
X313272Y133461
X303272Y133461
X293272Y133461
X283272Y133461
X273272Y133461
X263272Y133461
X263272Y143461
X253272Y133461
X243272Y133461
X233272Y133461
X223272Y133461
X213272Y133461
X213272Y143461
X203272Y133461
X193272Y133461
X183272Y133461
X173272Y133461
X163272Y133461
X153272Y133461
X143272Y133461
X133272Y133461
X123272Y133461
X113272Y133461
X103272Y133461
X93272Y133461
X83272Y133461
X83272Y193461
X93272Y193461
X103272Y193461
X113272Y193461
X123272Y193461
X133272Y193461
X143272Y193461
X153272Y193461
X163272Y193461
X173272Y193461
X183272Y193461
X193272Y193461
X203272Y193461
X213272Y193461
X223272Y193461
X233272Y193461
X243272Y193461
X253272Y193461
X263272Y193461
X273272Y193461
X283272Y193461
X293272Y193461
X303272Y193461
X313272Y193461
X263272Y183461
X263272Y173461
X263272Y163461
X263272Y153461
X213272Y153461
X213272Y163461
X213272Y173461
X213272Y183461
T05
X297681Y224740
X297681Y234740
X297681Y244740
X307681Y244740
X307681Y234740
X307681Y224740
X307681Y254740
X297681Y254740
T06
X261835Y249740
X261835Y229740
X297678Y310784
X290607Y317855
X283536Y324926
X276465Y331997
X269394Y339068
X277172Y346846
X284243Y339775
X291314Y332704
X298385Y325633
X305456Y318562
X346972Y284031
X356972Y284031
X366972Y284031
X376972Y284031
X218843Y364161
X208843Y364161
X198843Y364161
X188843Y364161
X188843Y375161
X198843Y375161
X208843Y375161
X218843Y375161
X178843Y375161
X178843Y364161
X127307Y339068
X120236Y331997
X113165Y324926
X106094Y317855
X99023Y310784
X91244Y318562
X98315Y325633
X105386Y332704
X112458Y339775
X119529Y346846
T07
X355055Y239740
X373055Y239740
T08
X323350Y114740
X73350Y114740
X73350Y364740
X323350Y364740
M30
