G75*
%MOIN*%
%OFA0B0*%
%FSLAX25Y25*%
%IPPOS*%
%LPD*%
%AMOC8*
5,1,8,0,0,1.08239X$1,22.5*
%
%ADD10C,0.06800*%
%ADD11C,0.08200*%
%ADD12C,0.08800*%
%ADD13C,0.01480*%
%ADD14OC8,0.07400*%
%ADD15R,0.06312X0.04737*%
%ADD16R,0.07887X0.07099*%
%ADD17R,0.07099X0.07887*%
%ADD18C,0.04343*%
%ADD19C,0.06600*%
%ADD20R,0.08674X0.04737*%
%ADD21R,0.04737X0.07887*%
%ADD22R,0.06737X0.06737*%
%ADD23C,0.06737*%
%ADD24R,0.04737X0.06312*%
%ADD25C,0.13792*%
%ADD26C,0.03778*%
D10*
X0346972Y0281031D02*
X0346972Y0287031D01*
X0356972Y0287031D02*
X0356972Y0281031D01*
X0366972Y0281031D02*
X0366972Y0287031D01*
X0376972Y0287031D02*
X0376972Y0281031D01*
D11*
X0305456Y0318562D03*
X0298385Y0325633D03*
X0291314Y0332704D03*
X0284243Y0339775D03*
X0277172Y0346846D03*
X0269394Y0339068D03*
X0276465Y0331997D03*
X0283536Y0324926D03*
X0290607Y0317855D03*
X0297678Y0310784D03*
X0261835Y0249740D03*
X0261835Y0229740D03*
X0127307Y0339068D03*
X0120236Y0331997D03*
X0113165Y0324926D03*
X0106094Y0317855D03*
X0099023Y0310784D03*
X0091244Y0318562D03*
X0098315Y0325633D03*
X0105386Y0332704D03*
X0112458Y0339775D03*
X0119529Y0346846D03*
X0178843Y0364161D03*
X0178843Y0375161D03*
X0188843Y0375161D03*
X0198843Y0375161D03*
X0208843Y0375161D03*
X0218843Y0375161D03*
X0218843Y0364161D03*
X0208843Y0364161D03*
X0198843Y0364161D03*
X0188843Y0364161D03*
D12*
X0355055Y0239740D03*
X0373055Y0239740D03*
D13*
X0095362Y0098890D02*
X0094622Y0099630D01*
X0097074Y0099630D01*
X0098807Y0097897D01*
X0098807Y0095445D01*
X0097074Y0093712D01*
X0094622Y0093712D01*
X0092889Y0095445D01*
X0092889Y0097897D01*
X0094622Y0099630D01*
X0095082Y0098520D01*
X0096614Y0098520D01*
X0097697Y0097437D01*
X0097697Y0095905D01*
X0096614Y0094822D01*
X0095082Y0094822D01*
X0093999Y0095905D01*
X0093999Y0097437D01*
X0095082Y0098520D01*
X0095542Y0097410D01*
X0096154Y0097410D01*
X0096587Y0096977D01*
X0096587Y0096365D01*
X0096154Y0095932D01*
X0095542Y0095932D01*
X0095109Y0096365D01*
X0095109Y0096977D01*
X0095542Y0097410D01*
X0100930Y0093323D02*
X0100190Y0094063D01*
X0102642Y0094063D01*
X0104375Y0092330D01*
X0104375Y0089878D01*
X0102642Y0088145D01*
X0100190Y0088145D01*
X0098457Y0089878D01*
X0098457Y0092330D01*
X0100190Y0094063D01*
X0100650Y0092953D01*
X0102182Y0092953D01*
X0103265Y0091870D01*
X0103265Y0090338D01*
X0102182Y0089255D01*
X0100650Y0089255D01*
X0099567Y0090338D01*
X0099567Y0091870D01*
X0100650Y0092953D01*
X0101110Y0091843D01*
X0101722Y0091843D01*
X0102155Y0091410D01*
X0102155Y0090798D01*
X0101722Y0090365D01*
X0101110Y0090365D01*
X0100677Y0090798D01*
X0100677Y0091410D01*
X0101110Y0091843D01*
X0106498Y0087755D02*
X0105758Y0088495D01*
X0108210Y0088495D01*
X0109943Y0086762D01*
X0109943Y0084310D01*
X0108210Y0082577D01*
X0105758Y0082577D01*
X0104025Y0084310D01*
X0104025Y0086762D01*
X0105758Y0088495D01*
X0106218Y0087385D01*
X0107750Y0087385D01*
X0108833Y0086302D01*
X0108833Y0084770D01*
X0107750Y0083687D01*
X0106218Y0083687D01*
X0105135Y0084770D01*
X0105135Y0086302D01*
X0106218Y0087385D01*
X0106678Y0086275D01*
X0107290Y0086275D01*
X0107723Y0085842D01*
X0107723Y0085230D01*
X0107290Y0084797D01*
X0106678Y0084797D01*
X0106245Y0085230D01*
X0106245Y0085842D01*
X0106678Y0086275D01*
X0112066Y0082187D02*
X0111326Y0082927D01*
X0113778Y0082927D01*
X0115511Y0081194D01*
X0115511Y0078742D01*
X0113778Y0077009D01*
X0111326Y0077009D01*
X0109593Y0078742D01*
X0109593Y0081194D01*
X0111326Y0082927D01*
X0111786Y0081817D01*
X0113318Y0081817D01*
X0114401Y0080734D01*
X0114401Y0079202D01*
X0113318Y0078119D01*
X0111786Y0078119D01*
X0110703Y0079202D01*
X0110703Y0080734D01*
X0111786Y0081817D01*
X0112246Y0080707D01*
X0112858Y0080707D01*
X0113291Y0080274D01*
X0113291Y0079662D01*
X0112858Y0079229D01*
X0112246Y0079229D01*
X0111813Y0079662D01*
X0111813Y0080274D01*
X0112246Y0080707D01*
X0117633Y0076619D02*
X0116893Y0077359D01*
X0119345Y0077359D01*
X0121078Y0075626D01*
X0121078Y0073174D01*
X0119345Y0071441D01*
X0116893Y0071441D01*
X0115160Y0073174D01*
X0115160Y0075626D01*
X0116893Y0077359D01*
X0117353Y0076249D01*
X0118885Y0076249D01*
X0119968Y0075166D01*
X0119968Y0073634D01*
X0118885Y0072551D01*
X0117353Y0072551D01*
X0116270Y0073634D01*
X0116270Y0075166D01*
X0117353Y0076249D01*
X0117813Y0075139D01*
X0118425Y0075139D01*
X0118858Y0074706D01*
X0118858Y0074094D01*
X0118425Y0073661D01*
X0117813Y0073661D01*
X0117380Y0074094D01*
X0117380Y0074706D01*
X0117813Y0075139D01*
X0123201Y0071052D02*
X0122461Y0071792D01*
X0124913Y0071792D01*
X0126646Y0070059D01*
X0126646Y0067607D01*
X0124913Y0065874D01*
X0122461Y0065874D01*
X0120728Y0067607D01*
X0120728Y0070059D01*
X0122461Y0071792D01*
X0122921Y0070682D01*
X0124453Y0070682D01*
X0125536Y0069599D01*
X0125536Y0068067D01*
X0124453Y0066984D01*
X0122921Y0066984D01*
X0121838Y0068067D01*
X0121838Y0069599D01*
X0122921Y0070682D01*
X0123381Y0069572D01*
X0123993Y0069572D01*
X0124426Y0069139D01*
X0124426Y0068527D01*
X0123993Y0068094D01*
X0123381Y0068094D01*
X0122948Y0068527D01*
X0122948Y0069139D01*
X0123381Y0069572D01*
X0271287Y0067362D02*
X0270547Y0066622D01*
X0270547Y0069074D01*
X0272280Y0070807D01*
X0274732Y0070807D01*
X0276465Y0069074D01*
X0276465Y0066622D01*
X0274732Y0064889D01*
X0272280Y0064889D01*
X0270547Y0066622D01*
X0271657Y0067082D01*
X0271657Y0068614D01*
X0272740Y0069697D01*
X0274272Y0069697D01*
X0275355Y0068614D01*
X0275355Y0067082D01*
X0274272Y0065999D01*
X0272740Y0065999D01*
X0271657Y0067082D01*
X0272767Y0067542D01*
X0272767Y0068154D01*
X0273200Y0068587D01*
X0273812Y0068587D01*
X0274245Y0068154D01*
X0274245Y0067542D01*
X0273812Y0067109D01*
X0273200Y0067109D01*
X0272767Y0067542D01*
X0276855Y0072930D02*
X0276115Y0072190D01*
X0276115Y0074642D01*
X0277848Y0076375D01*
X0280300Y0076375D01*
X0282033Y0074642D01*
X0282033Y0072190D01*
X0280300Y0070457D01*
X0277848Y0070457D01*
X0276115Y0072190D01*
X0277225Y0072650D01*
X0277225Y0074182D01*
X0278308Y0075265D01*
X0279840Y0075265D01*
X0280923Y0074182D01*
X0280923Y0072650D01*
X0279840Y0071567D01*
X0278308Y0071567D01*
X0277225Y0072650D01*
X0278335Y0073110D01*
X0278335Y0073722D01*
X0278768Y0074155D01*
X0279380Y0074155D01*
X0279813Y0073722D01*
X0279813Y0073110D01*
X0279380Y0072677D01*
X0278768Y0072677D01*
X0278335Y0073110D01*
X0282422Y0078498D02*
X0281682Y0077758D01*
X0281682Y0080210D01*
X0283415Y0081943D01*
X0285867Y0081943D01*
X0287600Y0080210D01*
X0287600Y0077758D01*
X0285867Y0076025D01*
X0283415Y0076025D01*
X0281682Y0077758D01*
X0282792Y0078218D01*
X0282792Y0079750D01*
X0283875Y0080833D01*
X0285407Y0080833D01*
X0286490Y0079750D01*
X0286490Y0078218D01*
X0285407Y0077135D01*
X0283875Y0077135D01*
X0282792Y0078218D01*
X0283902Y0078678D01*
X0283902Y0079290D01*
X0284335Y0079723D01*
X0284947Y0079723D01*
X0285380Y0079290D01*
X0285380Y0078678D01*
X0284947Y0078245D01*
X0284335Y0078245D01*
X0283902Y0078678D01*
X0287990Y0084066D02*
X0287250Y0083326D01*
X0287250Y0085778D01*
X0288983Y0087511D01*
X0291435Y0087511D01*
X0293168Y0085778D01*
X0293168Y0083326D01*
X0291435Y0081593D01*
X0288983Y0081593D01*
X0287250Y0083326D01*
X0288360Y0083786D01*
X0288360Y0085318D01*
X0289443Y0086401D01*
X0290975Y0086401D01*
X0292058Y0085318D01*
X0292058Y0083786D01*
X0290975Y0082703D01*
X0289443Y0082703D01*
X0288360Y0083786D01*
X0289470Y0084246D01*
X0289470Y0084858D01*
X0289903Y0085291D01*
X0290515Y0085291D01*
X0290948Y0084858D01*
X0290948Y0084246D01*
X0290515Y0083813D01*
X0289903Y0083813D01*
X0289470Y0084246D01*
X0293558Y0089633D02*
X0292818Y0088893D01*
X0292818Y0091345D01*
X0294551Y0093078D01*
X0297003Y0093078D01*
X0298736Y0091345D01*
X0298736Y0088893D01*
X0297003Y0087160D01*
X0294551Y0087160D01*
X0292818Y0088893D01*
X0293928Y0089353D01*
X0293928Y0090885D01*
X0295011Y0091968D01*
X0296543Y0091968D01*
X0297626Y0090885D01*
X0297626Y0089353D01*
X0296543Y0088270D01*
X0295011Y0088270D01*
X0293928Y0089353D01*
X0295038Y0089813D01*
X0295038Y0090425D01*
X0295471Y0090858D01*
X0296083Y0090858D01*
X0296516Y0090425D01*
X0296516Y0089813D01*
X0296083Y0089380D01*
X0295471Y0089380D01*
X0295038Y0089813D01*
X0299126Y0095201D02*
X0298386Y0094461D01*
X0298386Y0096913D01*
X0300119Y0098646D01*
X0302571Y0098646D01*
X0304304Y0096913D01*
X0304304Y0094461D01*
X0302571Y0092728D01*
X0300119Y0092728D01*
X0298386Y0094461D01*
X0299496Y0094921D01*
X0299496Y0096453D01*
X0300579Y0097536D01*
X0302111Y0097536D01*
X0303194Y0096453D01*
X0303194Y0094921D01*
X0302111Y0093838D01*
X0300579Y0093838D01*
X0299496Y0094921D01*
X0300606Y0095381D01*
X0300606Y0095993D01*
X0301039Y0096426D01*
X0301651Y0096426D01*
X0302084Y0095993D01*
X0302084Y0095381D01*
X0301651Y0094948D01*
X0301039Y0094948D01*
X0300606Y0095381D01*
X0373201Y0327449D02*
X0372461Y0328189D01*
X0374913Y0328189D01*
X0376646Y0326456D01*
X0376646Y0324004D01*
X0374913Y0322271D01*
X0372461Y0322271D01*
X0370728Y0324004D01*
X0370728Y0326456D01*
X0372461Y0328189D01*
X0372921Y0327079D01*
X0374453Y0327079D01*
X0375536Y0325996D01*
X0375536Y0324464D01*
X0374453Y0323381D01*
X0372921Y0323381D01*
X0371838Y0324464D01*
X0371838Y0325996D01*
X0372921Y0327079D01*
X0373381Y0325969D01*
X0373993Y0325969D01*
X0374426Y0325536D01*
X0374426Y0324924D01*
X0373993Y0324491D01*
X0373381Y0324491D01*
X0372948Y0324924D01*
X0372948Y0325536D01*
X0373381Y0325969D01*
X0367633Y0333017D02*
X0366893Y0333757D01*
X0369345Y0333757D01*
X0371078Y0332024D01*
X0371078Y0329572D01*
X0369345Y0327839D01*
X0366893Y0327839D01*
X0365160Y0329572D01*
X0365160Y0332024D01*
X0366893Y0333757D01*
X0367353Y0332647D01*
X0368885Y0332647D01*
X0369968Y0331564D01*
X0369968Y0330032D01*
X0368885Y0328949D01*
X0367353Y0328949D01*
X0366270Y0330032D01*
X0366270Y0331564D01*
X0367353Y0332647D01*
X0367813Y0331537D01*
X0368425Y0331537D01*
X0368858Y0331104D01*
X0368858Y0330492D01*
X0368425Y0330059D01*
X0367813Y0330059D01*
X0367380Y0330492D01*
X0367380Y0331104D01*
X0367813Y0331537D01*
X0362066Y0338585D02*
X0361326Y0339325D01*
X0363778Y0339325D01*
X0365511Y0337592D01*
X0365511Y0335140D01*
X0363778Y0333407D01*
X0361326Y0333407D01*
X0359593Y0335140D01*
X0359593Y0337592D01*
X0361326Y0339325D01*
X0361786Y0338215D01*
X0363318Y0338215D01*
X0364401Y0337132D01*
X0364401Y0335600D01*
X0363318Y0334517D01*
X0361786Y0334517D01*
X0360703Y0335600D01*
X0360703Y0337132D01*
X0361786Y0338215D01*
X0362246Y0337105D01*
X0362858Y0337105D01*
X0363291Y0336672D01*
X0363291Y0336060D01*
X0362858Y0335627D01*
X0362246Y0335627D01*
X0361813Y0336060D01*
X0361813Y0336672D01*
X0362246Y0337105D01*
X0356498Y0344152D02*
X0355758Y0344892D01*
X0358210Y0344892D01*
X0359943Y0343159D01*
X0359943Y0340707D01*
X0358210Y0338974D01*
X0355758Y0338974D01*
X0354025Y0340707D01*
X0354025Y0343159D01*
X0355758Y0344892D01*
X0356218Y0343782D01*
X0357750Y0343782D01*
X0358833Y0342699D01*
X0358833Y0341167D01*
X0357750Y0340084D01*
X0356218Y0340084D01*
X0355135Y0341167D01*
X0355135Y0342699D01*
X0356218Y0343782D01*
X0356678Y0342672D01*
X0357290Y0342672D01*
X0357723Y0342239D01*
X0357723Y0341627D01*
X0357290Y0341194D01*
X0356678Y0341194D01*
X0356245Y0341627D01*
X0356245Y0342239D01*
X0356678Y0342672D01*
X0350930Y0349720D02*
X0350190Y0350460D01*
X0352642Y0350460D01*
X0354375Y0348727D01*
X0354375Y0346275D01*
X0352642Y0344542D01*
X0350190Y0344542D01*
X0348457Y0346275D01*
X0348457Y0348727D01*
X0350190Y0350460D01*
X0350650Y0349350D01*
X0352182Y0349350D01*
X0353265Y0348267D01*
X0353265Y0346735D01*
X0352182Y0345652D01*
X0350650Y0345652D01*
X0349567Y0346735D01*
X0349567Y0348267D01*
X0350650Y0349350D01*
X0351110Y0348240D01*
X0351722Y0348240D01*
X0352155Y0347807D01*
X0352155Y0347195D01*
X0351722Y0346762D01*
X0351110Y0346762D01*
X0350677Y0347195D01*
X0350677Y0347807D01*
X0351110Y0348240D01*
X0345362Y0355288D02*
X0344622Y0356028D01*
X0347074Y0356028D01*
X0348807Y0354295D01*
X0348807Y0351843D01*
X0347074Y0350110D01*
X0344622Y0350110D01*
X0342889Y0351843D01*
X0342889Y0354295D01*
X0344622Y0356028D01*
X0345082Y0354918D01*
X0346614Y0354918D01*
X0347697Y0353835D01*
X0347697Y0352303D01*
X0346614Y0351220D01*
X0345082Y0351220D01*
X0343999Y0352303D01*
X0343999Y0353835D01*
X0345082Y0354918D01*
X0345542Y0353808D01*
X0346154Y0353808D01*
X0346587Y0353375D01*
X0346587Y0352763D01*
X0346154Y0352330D01*
X0345542Y0352330D01*
X0345109Y0352763D01*
X0345109Y0353375D01*
X0345542Y0353808D01*
X0311193Y0389457D02*
X0310453Y0390197D01*
X0312905Y0390197D01*
X0314638Y0388464D01*
X0314638Y0386012D01*
X0312905Y0384279D01*
X0310453Y0384279D01*
X0308720Y0386012D01*
X0308720Y0388464D01*
X0310453Y0390197D01*
X0310913Y0389087D01*
X0312445Y0389087D01*
X0313528Y0388004D01*
X0313528Y0386472D01*
X0312445Y0385389D01*
X0310913Y0385389D01*
X0309830Y0386472D01*
X0309830Y0388004D01*
X0310913Y0389087D01*
X0311373Y0387977D01*
X0311985Y0387977D01*
X0312418Y0387544D01*
X0312418Y0386932D01*
X0311985Y0386499D01*
X0311373Y0386499D01*
X0310940Y0386932D01*
X0310940Y0387544D01*
X0311373Y0387977D01*
X0305625Y0395025D02*
X0304885Y0395765D01*
X0307337Y0395765D01*
X0309070Y0394032D01*
X0309070Y0391580D01*
X0307337Y0389847D01*
X0304885Y0389847D01*
X0303152Y0391580D01*
X0303152Y0394032D01*
X0304885Y0395765D01*
X0305345Y0394655D01*
X0306877Y0394655D01*
X0307960Y0393572D01*
X0307960Y0392040D01*
X0306877Y0390957D01*
X0305345Y0390957D01*
X0304262Y0392040D01*
X0304262Y0393572D01*
X0305345Y0394655D01*
X0305805Y0393545D01*
X0306417Y0393545D01*
X0306850Y0393112D01*
X0306850Y0392500D01*
X0306417Y0392067D01*
X0305805Y0392067D01*
X0305372Y0392500D01*
X0305372Y0393112D01*
X0305805Y0393545D01*
X0300058Y0400593D02*
X0299318Y0401333D01*
X0301770Y0401333D01*
X0303503Y0399600D01*
X0303503Y0397148D01*
X0301770Y0395415D01*
X0299318Y0395415D01*
X0297585Y0397148D01*
X0297585Y0399600D01*
X0299318Y0401333D01*
X0299778Y0400223D01*
X0301310Y0400223D01*
X0302393Y0399140D01*
X0302393Y0397608D01*
X0301310Y0396525D01*
X0299778Y0396525D01*
X0298695Y0397608D01*
X0298695Y0399140D01*
X0299778Y0400223D01*
X0300238Y0399113D01*
X0300850Y0399113D01*
X0301283Y0398680D01*
X0301283Y0398068D01*
X0300850Y0397635D01*
X0300238Y0397635D01*
X0299805Y0398068D01*
X0299805Y0398680D01*
X0300238Y0399113D01*
X0294490Y0406160D02*
X0293750Y0406900D01*
X0296202Y0406900D01*
X0297935Y0405167D01*
X0297935Y0402715D01*
X0296202Y0400982D01*
X0293750Y0400982D01*
X0292017Y0402715D01*
X0292017Y0405167D01*
X0293750Y0406900D01*
X0294210Y0405790D01*
X0295742Y0405790D01*
X0296825Y0404707D01*
X0296825Y0403175D01*
X0295742Y0402092D01*
X0294210Y0402092D01*
X0293127Y0403175D01*
X0293127Y0404707D01*
X0294210Y0405790D01*
X0294670Y0404680D01*
X0295282Y0404680D01*
X0295715Y0404247D01*
X0295715Y0403635D01*
X0295282Y0403202D01*
X0294670Y0403202D01*
X0294237Y0403635D01*
X0294237Y0404247D01*
X0294670Y0404680D01*
X0288922Y0411728D02*
X0288182Y0412468D01*
X0290634Y0412468D01*
X0292367Y0410735D01*
X0292367Y0408283D01*
X0290634Y0406550D01*
X0288182Y0406550D01*
X0286449Y0408283D01*
X0286449Y0410735D01*
X0288182Y0412468D01*
X0288642Y0411358D01*
X0290174Y0411358D01*
X0291257Y0410275D01*
X0291257Y0408743D01*
X0290174Y0407660D01*
X0288642Y0407660D01*
X0287559Y0408743D01*
X0287559Y0410275D01*
X0288642Y0411358D01*
X0289102Y0410248D01*
X0289714Y0410248D01*
X0290147Y0409815D01*
X0290147Y0409203D01*
X0289714Y0408770D01*
X0289102Y0408770D01*
X0288669Y0409203D01*
X0288669Y0409815D01*
X0289102Y0410248D01*
X0283354Y0417296D02*
X0282614Y0418036D01*
X0285066Y0418036D01*
X0286799Y0416303D01*
X0286799Y0413851D01*
X0285066Y0412118D01*
X0282614Y0412118D01*
X0280881Y0413851D01*
X0280881Y0416303D01*
X0282614Y0418036D01*
X0283074Y0416926D01*
X0284606Y0416926D01*
X0285689Y0415843D01*
X0285689Y0414311D01*
X0284606Y0413228D01*
X0283074Y0413228D01*
X0281991Y0414311D01*
X0281991Y0415843D01*
X0283074Y0416926D01*
X0283534Y0415816D01*
X0284146Y0415816D01*
X0284579Y0415383D01*
X0284579Y0414771D01*
X0284146Y0414338D01*
X0283534Y0414338D01*
X0283101Y0414771D01*
X0283101Y0415383D01*
X0283534Y0415816D01*
X0110641Y0414591D02*
X0109901Y0413851D01*
X0109901Y0416303D01*
X0111634Y0418036D01*
X0114086Y0418036D01*
X0115819Y0416303D01*
X0115819Y0413851D01*
X0114086Y0412118D01*
X0111634Y0412118D01*
X0109901Y0413851D01*
X0111011Y0414311D01*
X0111011Y0415843D01*
X0112094Y0416926D01*
X0113626Y0416926D01*
X0114709Y0415843D01*
X0114709Y0414311D01*
X0113626Y0413228D01*
X0112094Y0413228D01*
X0111011Y0414311D01*
X0112121Y0414771D01*
X0112121Y0415383D01*
X0112554Y0415816D01*
X0113166Y0415816D01*
X0113599Y0415383D01*
X0113599Y0414771D01*
X0113166Y0414338D01*
X0112554Y0414338D01*
X0112121Y0414771D01*
X0105074Y0409023D02*
X0104334Y0408283D01*
X0104334Y0410735D01*
X0106067Y0412468D01*
X0108519Y0412468D01*
X0110252Y0410735D01*
X0110252Y0408283D01*
X0108519Y0406550D01*
X0106067Y0406550D01*
X0104334Y0408283D01*
X0105444Y0408743D01*
X0105444Y0410275D01*
X0106527Y0411358D01*
X0108059Y0411358D01*
X0109142Y0410275D01*
X0109142Y0408743D01*
X0108059Y0407660D01*
X0106527Y0407660D01*
X0105444Y0408743D01*
X0106554Y0409203D01*
X0106554Y0409815D01*
X0106987Y0410248D01*
X0107599Y0410248D01*
X0108032Y0409815D01*
X0108032Y0409203D01*
X0107599Y0408770D01*
X0106987Y0408770D01*
X0106554Y0409203D01*
X0099506Y0403455D02*
X0098766Y0402715D01*
X0098766Y0405167D01*
X0100499Y0406900D01*
X0102951Y0406900D01*
X0104684Y0405167D01*
X0104684Y0402715D01*
X0102951Y0400982D01*
X0100499Y0400982D01*
X0098766Y0402715D01*
X0099876Y0403175D01*
X0099876Y0404707D01*
X0100959Y0405790D01*
X0102491Y0405790D01*
X0103574Y0404707D01*
X0103574Y0403175D01*
X0102491Y0402092D01*
X0100959Y0402092D01*
X0099876Y0403175D01*
X0100986Y0403635D01*
X0100986Y0404247D01*
X0101419Y0404680D01*
X0102031Y0404680D01*
X0102464Y0404247D01*
X0102464Y0403635D01*
X0102031Y0403202D01*
X0101419Y0403202D01*
X0100986Y0403635D01*
X0093938Y0397888D02*
X0093198Y0397148D01*
X0093198Y0399600D01*
X0094931Y0401333D01*
X0097383Y0401333D01*
X0099116Y0399600D01*
X0099116Y0397148D01*
X0097383Y0395415D01*
X0094931Y0395415D01*
X0093198Y0397148D01*
X0094308Y0397608D01*
X0094308Y0399140D01*
X0095391Y0400223D01*
X0096923Y0400223D01*
X0098006Y0399140D01*
X0098006Y0397608D01*
X0096923Y0396525D01*
X0095391Y0396525D01*
X0094308Y0397608D01*
X0095418Y0398068D01*
X0095418Y0398680D01*
X0095851Y0399113D01*
X0096463Y0399113D01*
X0096896Y0398680D01*
X0096896Y0398068D01*
X0096463Y0397635D01*
X0095851Y0397635D01*
X0095418Y0398068D01*
X0088370Y0392320D02*
X0087630Y0391580D01*
X0087630Y0394032D01*
X0089363Y0395765D01*
X0091815Y0395765D01*
X0093548Y0394032D01*
X0093548Y0391580D01*
X0091815Y0389847D01*
X0089363Y0389847D01*
X0087630Y0391580D01*
X0088740Y0392040D01*
X0088740Y0393572D01*
X0089823Y0394655D01*
X0091355Y0394655D01*
X0092438Y0393572D01*
X0092438Y0392040D01*
X0091355Y0390957D01*
X0089823Y0390957D01*
X0088740Y0392040D01*
X0089850Y0392500D01*
X0089850Y0393112D01*
X0090283Y0393545D01*
X0090895Y0393545D01*
X0091328Y0393112D01*
X0091328Y0392500D01*
X0090895Y0392067D01*
X0090283Y0392067D01*
X0089850Y0392500D01*
X0082803Y0386752D02*
X0082063Y0386012D01*
X0082063Y0388464D01*
X0083796Y0390197D01*
X0086248Y0390197D01*
X0087981Y0388464D01*
X0087981Y0386012D01*
X0086248Y0384279D01*
X0083796Y0384279D01*
X0082063Y0386012D01*
X0083173Y0386472D01*
X0083173Y0388004D01*
X0084256Y0389087D01*
X0085788Y0389087D01*
X0086871Y0388004D01*
X0086871Y0386472D01*
X0085788Y0385389D01*
X0084256Y0385389D01*
X0083173Y0386472D01*
X0084283Y0386932D01*
X0084283Y0387544D01*
X0084716Y0387977D01*
X0085328Y0387977D01*
X0085761Y0387544D01*
X0085761Y0386932D01*
X0085328Y0386499D01*
X0084716Y0386499D01*
X0084283Y0386932D01*
X0048633Y0352583D02*
X0047893Y0351843D01*
X0047893Y0354295D01*
X0049626Y0356028D01*
X0052078Y0356028D01*
X0053811Y0354295D01*
X0053811Y0351843D01*
X0052078Y0350110D01*
X0049626Y0350110D01*
X0047893Y0351843D01*
X0049003Y0352303D01*
X0049003Y0353835D01*
X0050086Y0354918D01*
X0051618Y0354918D01*
X0052701Y0353835D01*
X0052701Y0352303D01*
X0051618Y0351220D01*
X0050086Y0351220D01*
X0049003Y0352303D01*
X0050113Y0352763D01*
X0050113Y0353375D01*
X0050546Y0353808D01*
X0051158Y0353808D01*
X0051591Y0353375D01*
X0051591Y0352763D01*
X0051158Y0352330D01*
X0050546Y0352330D01*
X0050113Y0352763D01*
X0043066Y0347015D02*
X0042326Y0346275D01*
X0042326Y0348727D01*
X0044059Y0350460D01*
X0046511Y0350460D01*
X0048244Y0348727D01*
X0048244Y0346275D01*
X0046511Y0344542D01*
X0044059Y0344542D01*
X0042326Y0346275D01*
X0043436Y0346735D01*
X0043436Y0348267D01*
X0044519Y0349350D01*
X0046051Y0349350D01*
X0047134Y0348267D01*
X0047134Y0346735D01*
X0046051Y0345652D01*
X0044519Y0345652D01*
X0043436Y0346735D01*
X0044546Y0347195D01*
X0044546Y0347807D01*
X0044979Y0348240D01*
X0045591Y0348240D01*
X0046024Y0347807D01*
X0046024Y0347195D01*
X0045591Y0346762D01*
X0044979Y0346762D01*
X0044546Y0347195D01*
X0037498Y0341447D02*
X0036758Y0340707D01*
X0036758Y0343159D01*
X0038491Y0344892D01*
X0040943Y0344892D01*
X0042676Y0343159D01*
X0042676Y0340707D01*
X0040943Y0338974D01*
X0038491Y0338974D01*
X0036758Y0340707D01*
X0037868Y0341167D01*
X0037868Y0342699D01*
X0038951Y0343782D01*
X0040483Y0343782D01*
X0041566Y0342699D01*
X0041566Y0341167D01*
X0040483Y0340084D01*
X0038951Y0340084D01*
X0037868Y0341167D01*
X0038978Y0341627D01*
X0038978Y0342239D01*
X0039411Y0342672D01*
X0040023Y0342672D01*
X0040456Y0342239D01*
X0040456Y0341627D01*
X0040023Y0341194D01*
X0039411Y0341194D01*
X0038978Y0341627D01*
X0031930Y0335880D02*
X0031190Y0335140D01*
X0031190Y0337592D01*
X0032923Y0339325D01*
X0035375Y0339325D01*
X0037108Y0337592D01*
X0037108Y0335140D01*
X0035375Y0333407D01*
X0032923Y0333407D01*
X0031190Y0335140D01*
X0032300Y0335600D01*
X0032300Y0337132D01*
X0033383Y0338215D01*
X0034915Y0338215D01*
X0035998Y0337132D01*
X0035998Y0335600D01*
X0034915Y0334517D01*
X0033383Y0334517D01*
X0032300Y0335600D01*
X0033410Y0336060D01*
X0033410Y0336672D01*
X0033843Y0337105D01*
X0034455Y0337105D01*
X0034888Y0336672D01*
X0034888Y0336060D01*
X0034455Y0335627D01*
X0033843Y0335627D01*
X0033410Y0336060D01*
X0026362Y0330312D02*
X0025622Y0329572D01*
X0025622Y0332024D01*
X0027355Y0333757D01*
X0029807Y0333757D01*
X0031540Y0332024D01*
X0031540Y0329572D01*
X0029807Y0327839D01*
X0027355Y0327839D01*
X0025622Y0329572D01*
X0026732Y0330032D01*
X0026732Y0331564D01*
X0027815Y0332647D01*
X0029347Y0332647D01*
X0030430Y0331564D01*
X0030430Y0330032D01*
X0029347Y0328949D01*
X0027815Y0328949D01*
X0026732Y0330032D01*
X0027842Y0330492D01*
X0027842Y0331104D01*
X0028275Y0331537D01*
X0028887Y0331537D01*
X0029320Y0331104D01*
X0029320Y0330492D01*
X0028887Y0330059D01*
X0028275Y0330059D01*
X0027842Y0330492D01*
X0020795Y0324744D02*
X0020055Y0324004D01*
X0020055Y0326456D01*
X0021788Y0328189D01*
X0024240Y0328189D01*
X0025973Y0326456D01*
X0025973Y0324004D01*
X0024240Y0322271D01*
X0021788Y0322271D01*
X0020055Y0324004D01*
X0021165Y0324464D01*
X0021165Y0325996D01*
X0022248Y0327079D01*
X0023780Y0327079D01*
X0024863Y0325996D01*
X0024863Y0324464D01*
X0023780Y0323381D01*
X0022248Y0323381D01*
X0021165Y0324464D01*
X0022275Y0324924D01*
X0022275Y0325536D01*
X0022708Y0325969D01*
X0023320Y0325969D01*
X0023753Y0325536D01*
X0023753Y0324924D01*
X0023320Y0324491D01*
X0022708Y0324491D01*
X0022275Y0324924D01*
D14*
X0143232Y0425272D03*
X0151106Y0425272D03*
X0158980Y0425272D03*
X0166854Y0425272D03*
X0174728Y0425272D03*
X0182602Y0425272D03*
X0213606Y0425272D03*
X0221480Y0425272D03*
X0229354Y0425272D03*
X0237228Y0425272D03*
X0245102Y0425272D03*
X0252976Y0425272D03*
X0218035Y0065528D03*
X0210161Y0065528D03*
X0202287Y0065528D03*
X0194413Y0065528D03*
X0186539Y0065528D03*
X0178665Y0065528D03*
D15*
X0168921Y0149386D03*
X0168921Y0156866D03*
X0177583Y0153126D03*
X0177583Y0171039D03*
X0177583Y0178520D03*
X0168921Y0174780D03*
X0232898Y0173795D03*
X0241559Y0170055D03*
X0241559Y0177535D03*
X0232898Y0156866D03*
X0232898Y0149386D03*
X0241559Y0153126D03*
X0286539Y0155882D03*
X0286539Y0148402D03*
X0295201Y0152142D03*
X0295201Y0171039D03*
X0295201Y0178520D03*
X0286539Y0174780D03*
D16*
X0276598Y0180291D03*
X0276598Y0169268D03*
X0276598Y0158638D03*
X0276598Y0147614D03*
X0253961Y0147614D03*
X0253961Y0158638D03*
X0252976Y0167299D03*
X0252976Y0178323D03*
X0223941Y0180291D03*
X0223941Y0169268D03*
X0223941Y0158638D03*
X0223941Y0147614D03*
X0203272Y0123697D03*
X0203272Y0112673D03*
X0183094Y0112673D03*
X0183094Y0123697D03*
X0189000Y0147614D03*
X0189000Y0158638D03*
X0188016Y0168283D03*
X0188016Y0179307D03*
X0203764Y0184720D03*
X0203764Y0173697D03*
X0158980Y0169268D03*
X0158980Y0158638D03*
X0158980Y0147614D03*
X0133390Y0142201D03*
X0133390Y0153224D03*
X0113213Y0173697D03*
X0113213Y0184720D03*
X0158980Y0180291D03*
X0263311Y0123697D03*
X0273154Y0123697D03*
X0273154Y0112673D03*
X0263311Y0112673D03*
X0306618Y0147614D03*
X0306618Y0158638D03*
X0306618Y0169268D03*
X0306618Y0180291D03*
D17*
X0283094Y0231374D03*
X0272071Y0231374D03*
X0073449Y0168382D03*
X0073449Y0159031D03*
X0062425Y0159031D03*
X0062425Y0168382D03*
D18*
X0364942Y0137139D03*
X0373294Y0145491D03*
D19*
X0313272Y0133461D03*
X0303272Y0133461D03*
X0293272Y0133461D03*
X0283272Y0133461D03*
X0273272Y0133461D03*
X0263272Y0133461D03*
X0263272Y0143461D03*
X0253272Y0133461D03*
X0243272Y0133461D03*
X0233272Y0133461D03*
X0223272Y0133461D03*
X0213272Y0133461D03*
X0213272Y0143461D03*
X0203272Y0133461D03*
X0193272Y0133461D03*
X0183272Y0133461D03*
X0173272Y0133461D03*
X0163272Y0133461D03*
X0153272Y0133461D03*
X0143272Y0133461D03*
X0133272Y0133461D03*
X0123272Y0133461D03*
X0113272Y0133461D03*
X0103272Y0133461D03*
X0093272Y0133461D03*
X0083272Y0133461D03*
X0083272Y0193461D03*
X0093272Y0193461D03*
X0103272Y0193461D03*
X0113272Y0193461D03*
X0123272Y0193461D03*
X0133272Y0193461D03*
X0143272Y0193461D03*
X0153272Y0193461D03*
X0163272Y0193461D03*
X0173272Y0193461D03*
X0183272Y0193461D03*
X0193272Y0193461D03*
X0203272Y0193461D03*
X0213272Y0193461D03*
X0223272Y0193461D03*
X0233272Y0193461D03*
X0243272Y0193461D03*
X0253272Y0193461D03*
X0263272Y0193461D03*
X0273272Y0193461D03*
X0283272Y0193461D03*
X0293272Y0193461D03*
X0303272Y0193461D03*
X0313272Y0193461D03*
X0263272Y0183461D03*
X0263272Y0173461D03*
X0263272Y0163461D03*
X0263272Y0153461D03*
X0213272Y0153461D03*
X0213272Y0163461D03*
X0213272Y0173461D03*
X0213272Y0183461D03*
D20*
X0061539Y0185114D03*
X0061539Y0191020D03*
X0061539Y0196925D03*
X0061539Y0202831D03*
X0061539Y0208736D03*
X0061539Y0214642D03*
X0061539Y0220547D03*
X0061539Y0226453D03*
X0061539Y0232358D03*
X0061539Y0238264D03*
X0061539Y0244169D03*
X0061539Y0250075D03*
X0061539Y0255980D03*
X0010358Y0255980D03*
X0010358Y0250075D03*
X0010358Y0244169D03*
X0010358Y0238264D03*
X0010358Y0232358D03*
X0010358Y0226453D03*
X0010358Y0220547D03*
X0010358Y0214642D03*
X0010358Y0208736D03*
X0010358Y0202831D03*
X0010358Y0196925D03*
X0010358Y0191020D03*
X0010358Y0185114D03*
D21*
X0015280Y0178224D03*
X0021185Y0178224D03*
X0027091Y0178224D03*
X0032996Y0178224D03*
X0038902Y0178224D03*
X0044807Y0178224D03*
X0050713Y0178224D03*
X0056618Y0178224D03*
D22*
X0307681Y0224740D03*
X0307681Y0254740D03*
D23*
X0307681Y0244740D03*
X0307681Y0234740D03*
X0297681Y0234740D03*
X0297681Y0224740D03*
X0297681Y0244740D03*
X0297681Y0254740D03*
D24*
X0278370Y0241315D03*
X0270890Y0241315D03*
X0274630Y0249976D03*
D25*
X0323350Y0364740D03*
X0073350Y0364740D03*
X0073350Y0114740D03*
X0323350Y0114740D03*
D26*
X0296776Y0161000D03*
X0300713Y0171039D03*
X0276598Y0163953D03*
X0268232Y0157555D03*
X0246579Y0164445D03*
X0232799Y0163953D03*
X0223941Y0163953D03*
X0217543Y0149681D03*
X0195890Y0160508D03*
X0182602Y0174287D03*
X0158980Y0163953D03*
X0144709Y0167398D03*
X0144709Y0171827D03*
X0138311Y0163953D03*
X0134374Y0163953D03*
X0127484Y0163953D03*
X0148646Y0147713D03*
X0168331Y0112280D03*
X0173252Y0112280D03*
X0193429Y0112673D03*
X0197366Y0100469D03*
X0203764Y0100469D03*
X0215083Y0104406D03*
X0220988Y0090134D03*
X0210161Y0087181D03*
X0225909Y0075862D03*
X0252976Y0090626D03*
X0263311Y0104406D03*
X0334669Y0167890D03*
X0338114Y0171335D03*
X0333685Y0178717D03*
X0198350Y0202467D03*
X0136343Y0214642D03*
X0132406Y0219071D03*
X0100909Y0173795D03*
X0091067Y0162476D03*
X0100417Y0153618D03*
X0093035Y0150173D03*
X0095988Y0146728D03*
X0123055Y0107850D03*
X0126992Y0104406D03*
X0132898Y0104406D03*
X0135358Y0091610D03*
X0143232Y0076354D03*
X0019709Y0191020D03*
X0022661Y0214642D03*
X0127976Y0287476D03*
X0133390Y0287476D03*
M02*
