%
M48
M72
T01C0.01969
T02C0.03150
T03C0.03200
T04C0.03543
T05C0.03800
T06C0.03937
T07C0.04000
T08C0.05906
T09C0.08000
T10C0.11024
%
T01
X70800Y65800
X87800Y71800
X117800Y93800
X127800Y89800
X192800Y105800
X201800Y105800
X211800Y105800
X221800Y105800
X243800Y104800
X253800Y104800
X241800Y127800
X231800Y127800
X221800Y127800
X211800Y127800
X201800Y127800
X206800Y143800
X231800Y155800
X241800Y159800
X257800Y156800
X257800Y147800
X251800Y143800
X257800Y139800
X275800Y148800
X221800Y177800
X211800Y178800
X161800Y200800
X132800Y200800
X134800Y142800
X124800Y142800
X114800Y142800
X104800Y142800
X252800Y242800
X355800Y248800
X102800Y22800
T02
X383800Y45800
X383800Y55800
X383800Y65800
X383800Y75800
X383800Y85800
X383800Y95800
X383800Y105800
X383800Y115800
T03
X341800Y101800
X331800Y101800
X321800Y101800
X311800Y101800
X301800Y101800
X291800Y101800
X281800Y101800
X271800Y101800
X271800Y131800
X281800Y131800
X291800Y131800
X301800Y131800
X311800Y131800
X321800Y131800
X331800Y131800
X341800Y131800
X341800Y180800
X331800Y180800
X321800Y180800
X311800Y180800
X301800Y180800
X291800Y180800
X281800Y180800
X271800Y180800
X271800Y210800
X281800Y210800
X291800Y210800
X301800Y210800
X311800Y210800
X321800Y210800
X331800Y210800
X341800Y210800
T04
X91800Y216005
X91800Y241595
T05
X86800Y193800
X76800Y193800
X66800Y193800
X56800Y193800
X46800Y193800
X36800Y193800
X26800Y193800
X16800Y193800
X41800Y181300
X51800Y181300
X61800Y181300
X71800Y181300
X81800Y181300
X96800Y193800
X106800Y193800
X116800Y193800
X126800Y193800
X136800Y193800
X146800Y193800
X156800Y193800
X166800Y193800
X176800Y193800
X186800Y193800
X196800Y193800
X206800Y193800
X216800Y193800
X226800Y193800
X236800Y193800
X246800Y193800
X196800Y183800
X196800Y173800
X196800Y163800
X196800Y153800
X196800Y143800
X196800Y133800
X186800Y133800
X176800Y133800
X166800Y133800
X156800Y133800
X146800Y133800
X136800Y133800
X126800Y133800
X116800Y133800
X106800Y133800
X96800Y133800
X86800Y133800
X76800Y133800
X66800Y133800
X56800Y133800
X46800Y133800
X36800Y133800
X26800Y133800
X16800Y133800
X26800Y143800
X46800Y143800
X56800Y143800
X66800Y143800
X206800Y133800
X216800Y133800
X226800Y133800
X236800Y133800
X246800Y133800
T06
X337800Y24800
X337800Y14800
X347800Y14800
X357800Y14800
X357800Y24800
X347800Y24800
X367800Y24800
X367800Y14800
T07
X310800Y21800
X310800Y31800
X310800Y41800
X310800Y51800
X285800Y51800
X285800Y41800
X285800Y31800
X285800Y21800
X260800Y21800
X260800Y31800
X260800Y41800
X260800Y51800
X271800Y76800
X281800Y76800
X291800Y76800
X301800Y76800
X311800Y76800
X321800Y76800
X362800Y135800
X372800Y135800
X382800Y135800
X382800Y155800
X372800Y155800
X362800Y155800
X362800Y175800
X372800Y175800
X382800Y175800
X382800Y195800
X372800Y195800
X362800Y195800
X362800Y215800
X372800Y215800
X382800Y215800
X382800Y235800
X372800Y235800
X362800Y235800
X321800Y233800
X311800Y233800
X301800Y233800
X291800Y233800
X281800Y233800
X271800Y233800
X231800Y243800
X231800Y253800
X231800Y263800
X201800Y263800
X201800Y253800
X201800Y243800
X201800Y233800
X201800Y223800
X201800Y213800
X166800Y213800
X166800Y223800
X166800Y233800
X166800Y243800
X166800Y253800
X166800Y263800
X131800Y263800
X131800Y253800
X131800Y243800
X131800Y233800
X131800Y223800
X131800Y213800
X56800Y218800
X56800Y228800
X46800Y228800
X46800Y218800
X30700Y211000
X12900Y211000
X12900Y236600
X30700Y236600
X46800Y238800
X46800Y248800
X56800Y248800
X56800Y238800
X46800Y101800
X36800Y101800
X26800Y101800
X16800Y101800
X271800Y155800
X281800Y155800
X291800Y155800
X301800Y155800
X311800Y155800
X321800Y155800
T08
X239800Y90800
X239800Y22800
X83800Y22800
X83800Y90800
T09
X44800Y56800
X26800Y56800
T10
X16800Y14800
X255800Y69800
X377800Y262800
X13800Y263800
M30
