G75*
%MOIN*%
%OFA0B0*%
%FSLAX25Y25*%
%IPPOS*%
%LPD*%
%AMOC8*
5,1,8,0,0,1.08239X$1,22.5*
%
%ADD10C,0.06800*%
%ADD11R,0.07898X0.07099*%
%ADD12C,0.08200*%
%ADD13R,0.11824X0.10249*%
%ADD14C,0.08800*%
%ADD15R,0.06737X0.06737*%
%ADD16C,0.06737*%
%ADD17R,0.06312X0.04737*%
%ADD18R,0.07887X0.07099*%
%ADD19R,0.03800X0.06800*%
%ADD20R,0.06706X0.03556*%
%ADD21R,0.03162X0.04737*%
%ADD22R,0.03950X0.04737*%
%ADD23C,0.04343*%
%ADD24C,0.06600*%
%ADD25R,0.08674X0.08674*%
%ADD26R,0.09461X0.03162*%
%ADD27C,0.07800*%
%ADD28R,0.07800X0.07800*%
%ADD29C,0.13398*%
%ADD30C,0.03660*%
%ADD31C,0.04762*%
%ADD32C,0.03600*%
D10*
X0168599Y0077831D03*
X0168599Y0087831D03*
X0168599Y0097831D03*
X0168599Y0107831D03*
X0168599Y0117831D03*
X0168599Y0127831D03*
X0250292Y0127831D03*
X0250292Y0117831D03*
X0250292Y0107831D03*
X0250292Y0097831D03*
X0250292Y0087831D03*
X0250292Y0077831D03*
X0331985Y0077831D03*
X0331985Y0087831D03*
X0331985Y0097831D03*
X0331985Y0107831D03*
X0331985Y0117831D03*
X0331985Y0127831D03*
X0333638Y0248106D03*
X0323638Y0248106D03*
X0313638Y0248106D03*
X0303638Y0248106D03*
X0343638Y0248106D03*
X0353638Y0248106D03*
X0353638Y0289937D03*
X0343638Y0289937D03*
X0333638Y0289937D03*
X0323638Y0289937D03*
X0313638Y0289937D03*
X0303638Y0289937D03*
X0273422Y0297811D03*
X0263422Y0297811D03*
X0263422Y0332260D03*
X0273422Y0332260D03*
X0253422Y0332260D03*
X0243422Y0332260D03*
X0303638Y0332260D03*
X0313638Y0332260D03*
X0323638Y0332260D03*
X0333638Y0332260D03*
X0343638Y0332260D03*
X0353638Y0332260D03*
D11*
X0136611Y0238449D03*
X0136611Y0227252D03*
X0136611Y0133134D03*
X0136611Y0121937D03*
D12*
X0154820Y0170193D03*
X0154820Y0190193D03*
X0162457Y0227850D03*
X0172457Y0227850D03*
X0182457Y0227850D03*
X0192457Y0227850D03*
X0192457Y0237850D03*
X0182457Y0237850D03*
X0172457Y0237850D03*
X0162457Y0237850D03*
X0239465Y0227929D03*
X0249465Y0227929D03*
X0259465Y0227929D03*
X0269465Y0227929D03*
X0269465Y0248106D03*
X0259465Y0248106D03*
X0249465Y0248106D03*
X0239465Y0248106D03*
X0239465Y0268283D03*
X0249465Y0268283D03*
X0259465Y0268283D03*
X0269465Y0268283D03*
X0384150Y0261394D03*
X0384150Y0251394D03*
X0384150Y0241394D03*
X0404327Y0241394D03*
X0404327Y0251394D03*
X0404327Y0261394D03*
X0404327Y0281256D03*
X0404327Y0291256D03*
X0404327Y0301256D03*
X0384150Y0301256D03*
X0384150Y0291256D03*
X0384150Y0281256D03*
X0384150Y0221531D03*
X0384150Y0211531D03*
X0384150Y0201531D03*
X0404327Y0201531D03*
X0404327Y0211531D03*
X0404327Y0221531D03*
D13*
X0399406Y0151945D03*
X0375390Y0151945D03*
X0375390Y0107063D03*
X0399406Y0107063D03*
D14*
X0399406Y0129504D03*
X0381406Y0129504D03*
D15*
X0406788Y0175764D03*
D16*
X0396788Y0175764D03*
X0386788Y0175764D03*
X0376788Y0175764D03*
X0376788Y0165764D03*
X0386788Y0165764D03*
X0396788Y0165764D03*
X0406788Y0165764D03*
D17*
X0323520Y0169366D03*
X0314859Y0165626D03*
X0314859Y0173106D03*
X0323520Y0187280D03*
X0323520Y0194760D03*
X0314859Y0191020D03*
X0269879Y0187772D03*
X0269879Y0195252D03*
X0261217Y0191512D03*
X0261217Y0173598D03*
X0261217Y0166118D03*
X0269879Y0169858D03*
X0212792Y0169858D03*
X0204131Y0166118D03*
X0204131Y0173598D03*
X0212792Y0187772D03*
X0204131Y0191512D03*
X0212792Y0195252D03*
X0349800Y0085213D03*
X0358461Y0088953D03*
X0358461Y0081472D03*
D18*
X0370863Y0079701D03*
X0370863Y0090724D03*
X0334938Y0163854D03*
X0334938Y0174878D03*
X0334938Y0185508D03*
X0334938Y0196531D03*
X0304918Y0196531D03*
X0304918Y0185508D03*
X0304918Y0174878D03*
X0304918Y0163854D03*
X0281296Y0164346D03*
X0281296Y0175370D03*
X0281296Y0186000D03*
X0281296Y0197024D03*
X0251276Y0197024D03*
X0251276Y0186000D03*
X0251276Y0175370D03*
X0251276Y0164346D03*
X0224209Y0164346D03*
X0224209Y0175370D03*
X0224209Y0186000D03*
X0224209Y0197024D03*
X0194190Y0175370D03*
X0194190Y0164346D03*
X0148422Y0133047D03*
X0148422Y0122024D03*
X0148422Y0227339D03*
X0148422Y0238362D03*
X0207477Y0238854D03*
X0207477Y0227831D03*
D19*
X0125410Y0221850D03*
X0110410Y0221850D03*
X0110410Y0243850D03*
X0125410Y0243850D03*
X0125410Y0138535D03*
X0110410Y0138535D03*
X0110410Y0116535D03*
X0125410Y0116535D03*
D20*
X0118402Y0171335D03*
X0118402Y0177240D03*
X0118402Y0189051D03*
D21*
X0107575Y0194563D03*
X0107575Y0165823D03*
D22*
X0115843Y0165823D03*
X0115843Y0194563D03*
D23*
X0111512Y0186098D03*
X0111512Y0174287D03*
D24*
X0110607Y0150193D03*
X0120607Y0150193D03*
X0130607Y0150193D03*
X0140607Y0150193D03*
X0150607Y0150193D03*
X0160607Y0150193D03*
X0170607Y0150193D03*
X0180607Y0150193D03*
X0190607Y0150193D03*
X0200607Y0150193D03*
X0210607Y0150193D03*
X0220607Y0150193D03*
X0230607Y0150193D03*
X0240607Y0150193D03*
X0250607Y0150193D03*
X0260607Y0150193D03*
X0270607Y0150193D03*
X0280607Y0150193D03*
X0290607Y0150193D03*
X0300607Y0150193D03*
X0310607Y0150193D03*
X0320607Y0150193D03*
X0330607Y0150193D03*
X0340607Y0150193D03*
X0290607Y0170193D03*
X0290607Y0210193D03*
X0300607Y0210193D03*
X0310607Y0210193D03*
X0320607Y0210193D03*
X0330607Y0210193D03*
X0340607Y0210193D03*
X0280607Y0210193D03*
X0270607Y0210193D03*
X0260607Y0210193D03*
X0250607Y0210193D03*
X0240607Y0210193D03*
X0230607Y0210193D03*
X0220607Y0210193D03*
X0210607Y0210193D03*
X0200607Y0210193D03*
X0190607Y0210193D03*
X0180607Y0210193D03*
X0170607Y0210193D03*
X0160607Y0210193D03*
X0150607Y0210193D03*
X0140607Y0210193D03*
X0130607Y0210193D03*
X0120607Y0210193D03*
X0110607Y0210193D03*
X0240607Y0170193D03*
D25*
X0208363Y0257654D03*
X0172142Y0257654D03*
X0172142Y0318283D03*
X0208363Y0318283D03*
D26*
X0225587Y0124937D03*
X0225587Y0119937D03*
X0225587Y0114937D03*
X0225587Y0109937D03*
X0225587Y0104937D03*
X0225587Y0099937D03*
X0225587Y0094937D03*
X0225587Y0089937D03*
X0225587Y0084937D03*
X0225587Y0079937D03*
X0189367Y0079937D03*
X0189367Y0084937D03*
X0189367Y0089937D03*
X0189367Y0094937D03*
X0189367Y0099937D03*
X0189367Y0104937D03*
X0189367Y0109937D03*
X0189367Y0114937D03*
X0189367Y0119937D03*
X0189367Y0124937D03*
X0271060Y0124937D03*
X0271060Y0119937D03*
X0271060Y0114937D03*
X0271060Y0109937D03*
X0271060Y0104937D03*
X0271060Y0099937D03*
X0271060Y0094937D03*
X0271060Y0089937D03*
X0271060Y0084937D03*
X0271060Y0079937D03*
X0307280Y0079937D03*
X0307280Y0084937D03*
X0307280Y0089937D03*
X0307280Y0094937D03*
X0307280Y0099937D03*
X0307280Y0104937D03*
X0307280Y0109937D03*
X0307280Y0114937D03*
X0307280Y0119937D03*
X0307280Y0124937D03*
D27*
X0224760Y0332260D03*
X0214760Y0332260D03*
X0204760Y0332260D03*
X0194760Y0332260D03*
X0184760Y0332260D03*
X0174760Y0332260D03*
X0154760Y0332260D03*
D28*
X0164760Y0332260D03*
D29*
X0130705Y0085705D03*
X0394485Y0085705D03*
X0394485Y0329799D03*
X0130705Y0329799D03*
D30*
X0190253Y0249091D03*
X0200095Y0246138D03*
X0218304Y0233835D03*
X0222241Y0230390D03*
X0237005Y0189543D03*
X0242910Y0184130D03*
X0242910Y0177240D03*
X0264564Y0159524D03*
X0296552Y0159524D03*
X0293599Y0130488D03*
X0314760Y0125075D03*
X0349701Y0136394D03*
X0387103Y0150173D03*
X0327556Y0179701D03*
X0285725Y0205291D03*
X0211906Y0130488D03*
X0202556Y0130488D03*
X0184347Y0140823D03*
X0180902Y0124583D03*
X0157772Y0089150D03*
X0136611Y0113264D03*
X0130705Y0127043D03*
X0110036Y0128028D03*
X0182871Y0166413D03*
X0233068Y0125075D03*
X0216827Y0080291D03*
X0222241Y0073402D03*
X0206985Y0079799D03*
X0197635Y0079799D03*
X0193205Y0073894D03*
X0299012Y0080783D03*
X0321650Y0089642D03*
X0154820Y0229898D03*
X0142516Y0235803D03*
X0283757Y0310606D03*
X0287694Y0340626D03*
D31*
X0145961Y0219563D03*
D32*
X0226315Y0242055D03*
X0261115Y0195714D03*
M02*
