G75*
%MOIN*%
%OFA0B0*%
%FSLAX25Y25*%
%IPPOS*%
%LPD*%
%AMOC8*
5,1,8,0,0,1.08239X$1,22.5*
%
%ADD10R,0.09449X0.11024*%
%ADD11R,0.02362X0.08661*%
%ADD12R,0.07087X0.06299*%
D10*
X0010555Y0176697D03*
X0010555Y0200713D03*
X0055437Y0200713D03*
X0055437Y0176697D03*
D11*
X0133035Y0041953D03*
X0138035Y0041953D03*
X0143035Y0041953D03*
X0148035Y0041953D03*
X0153035Y0041953D03*
X0158035Y0041953D03*
X0163035Y0041953D03*
X0168035Y0041953D03*
X0173035Y0041953D03*
X0178035Y0041953D03*
X0215713Y0041953D03*
X0220713Y0041953D03*
X0225713Y0041953D03*
X0230713Y0041953D03*
X0235713Y0041953D03*
X0240713Y0041953D03*
X0245713Y0041953D03*
X0250713Y0041953D03*
X0255713Y0041953D03*
X0260713Y0041953D03*
X0260713Y0078173D03*
X0255713Y0078173D03*
X0250713Y0078173D03*
X0245713Y0078173D03*
X0240713Y0078173D03*
X0235713Y0078173D03*
X0230713Y0078173D03*
X0225713Y0078173D03*
X0220713Y0078173D03*
X0215713Y0078173D03*
X0178035Y0078173D03*
X0173035Y0078173D03*
X0168035Y0078173D03*
X0163035Y0078173D03*
X0158035Y0078173D03*
X0153035Y0078173D03*
X0148035Y0078173D03*
X0143035Y0078173D03*
X0138035Y0078173D03*
X0133035Y0078173D03*
D12*
X0159472Y0193331D03*
X0159472Y0204354D03*
X0300713Y0194020D03*
X0300713Y0182996D03*
M02*
