%
M48
M72
T01C0.01378
T02C0.02756
T03C0.03150
T04C0.03200
T05C0.03543
T06C0.03800
T07C0.03937
T08C0.04000
T09C0.04724
T10C0.06299
T11C0.08000
T12C0.12992
%
T01
X103370Y64000
X125784Y64000
X136343Y54157
X150614Y50220
X155535Y50220
X160457Y50220
X160457Y58587
X155535Y58587
X150614Y58587
X142740Y67937
X167839Y54157
X173252Y64000
X200811Y64492
X207209Y67937
X220988Y67445
X225417Y64000
X233291Y58587
X238213Y58587
X243134Y58587
X250516Y54650
X243134Y50220
X238213Y50220
X233291Y50220
X223449Y54650
X233291Y31520
X233291Y27583
X233291Y23646
X238213Y23646
X238213Y27583
X238213Y31520
X243134Y31520
X243134Y27583
X243134Y23646
X271185Y64000
X255929Y70890
X268724Y82701
X293823Y82701
X340083Y130437
X317445Y145201
X295299Y133882
X258882Y146677
X243626Y143232
X218528Y139787
X218528Y126008
X226894Y121579
X228370Y85161
X200811Y82209
X156520Y124531
X153567Y143724
X112228Y120594
X53173Y167346
X46776Y167346
X46776Y173252
X46776Y179157
X46776Y198350
X46776Y204256
X46776Y210161
X53173Y210161
X116947Y242150
X297760Y224925
X341559Y193921
X346972Y195398
X306126Y177189
X160457Y31520
X160457Y27583
X160457Y23646
X155535Y23646
X155535Y27583
X155535Y31520
X150614Y31520
X150614Y27583
X150614Y23646
T02
X42242Y271572
X46417Y275748
X50593Y279924
X54769Y284100
X58945Y288276
X63121Y292451
X47373Y308199
X43197Y304024
X39021Y299848
X34845Y295672
X30669Y291496
X26493Y287320
X88501Y349328
X92677Y353504
X96853Y357680
X101029Y361856
X105205Y366031
X109381Y370207
X287320Y370207
X291496Y366031
X295672Y361856
X299848Y357680
X304024Y353504
X308199Y349328
X349328Y308199
X353504Y304024
X357680Y299848
X361856Y295672
X366031Y291496
X370207Y287320
X354459Y271572
X350283Y275748
X346108Y279924
X341932Y284100
X337756Y288276
X333580Y292451
T03
X224925Y198350
X171776Y198350
T04
X95356Y54297
X100924Y48730
X106492Y43162
X112059Y37594
X117627Y32026
X123195Y26459
X178665Y24138
X186539Y24138
X194413Y24138
X202287Y24138
X210161Y24138
X218035Y24138
X273506Y26459
X279074Y32026
X284641Y37594
X290209Y43162
X295777Y48730
X301345Y54297
T05
X126992Y185555
X126992Y211146
T06
X123429Y152071
X113429Y152071
X103429Y152071
X93429Y152071
X83429Y152071
X133429Y152071
X133429Y142071
X133429Y132071
X133429Y122071
X133429Y112071
X133429Y102071
X133429Y92071
X123429Y92071
X113429Y92071
X103429Y92071
X93429Y92071
X83429Y92071
X143429Y92071
X153429Y92071
X163429Y92071
X173429Y92071
X183429Y92071
X183429Y102071
X183429Y112071
X183429Y122071
X183429Y132071
X183429Y142071
X183429Y152071
X173429Y152071
X163429Y152071
X153429Y152071
X143429Y152071
X193429Y152071
X203429Y152071
X213429Y152071
X223429Y152071
X233429Y152071
X243429Y152071
X253429Y152071
X263429Y152071
X273429Y152071
X283429Y152071
X293429Y152071
X303429Y152071
X313429Y152071
X313429Y92071
X303429Y92071
X293429Y92071
X283429Y92071
X273429Y92071
X263429Y92071
X253429Y92071
X243429Y92071
X233429Y92071
X223429Y92071
X213429Y92071
X203429Y92071
X193429Y92071
T07
X277996Y183350
X277996Y193350
X287996Y193350
X287996Y183350
X287996Y203350
X277996Y203350
X277996Y213350
X287996Y213350
T08
X297678Y269394
X290607Y276465
X283536Y283536
X276465Y290607
X269394Y297678
X277172Y305456
X284243Y298385
X291314Y291314
X298385Y284243
X305456Y277172
X218350Y322772
X208350Y322772
X198350Y322772
X188350Y322772
X178350Y322772
X178350Y333772
X188350Y333772
X198350Y333772
X208350Y333772
X218350Y333772
X127307Y297678
X120236Y290607
X113165Y283536
X106094Y276465
X99023Y269394
X91244Y277172
X98315Y284243
X105387Y291314
X112458Y298385
X119529Y305456
X87130Y245102
X77130Y245102
X67130Y245102
X57130Y245102
X35991Y255934
X18191Y255934
X18191Y230334
X35991Y230334
X80732Y203272
X80732Y193272
T09
X188508Y173744
X208193Y173744
X208193Y222957
X188508Y222957
T10
X180634Y198350
X216067Y198350
T11
X32996Y194697
X32996Y176697
T12
X73350Y73350
X323350Y73350
X323350Y323350
X73350Y323350
M30
