G75*
%MOIN*%
%OFA0B0*%
%FSLAX25Y25*%
%IPPOS*%
%LPD*%
%AMOC8*
5,1,8,0,0,1.08239X$1,22.5*
%
%ADD10C,0.06800*%
%ADD11R,0.07887X0.07099*%
%ADD12R,0.07099X0.07887*%
%ADD13C,0.08200*%
%ADD14C,0.08800*%
%ADD15R,0.05800X0.03300*%
%ADD16R,0.06737X0.06737*%
%ADD17C,0.06737*%
%ADD18C,0.04343*%
%ADD19C,0.06600*%
%ADD20R,0.04737X0.08674*%
%ADD21R,0.07887X0.04737*%
%ADD22C,0.07800*%
%ADD23R,0.07800X0.07800*%
%ADD24C,0.13398*%
%ADD25C,0.03660*%
%ADD26C,0.04762*%
%ADD27C,0.03600*%
D10*
X0168599Y0077831D03*
X0168599Y0087831D03*
X0168599Y0097831D03*
X0168599Y0107831D03*
X0168599Y0117831D03*
X0168599Y0127831D03*
X0250292Y0127831D03*
X0250292Y0117831D03*
X0250292Y0107831D03*
X0250292Y0097831D03*
X0250292Y0087831D03*
X0250292Y0077831D03*
X0331985Y0077831D03*
X0331985Y0087831D03*
X0331985Y0097831D03*
X0331985Y0107831D03*
X0331985Y0117831D03*
X0331985Y0127831D03*
X0333638Y0248106D03*
X0323638Y0248106D03*
X0313638Y0248106D03*
X0303638Y0248106D03*
X0343638Y0248106D03*
X0353638Y0248106D03*
X0353638Y0289937D03*
X0343638Y0289937D03*
X0333638Y0289937D03*
X0323638Y0289937D03*
X0313638Y0289937D03*
X0303638Y0289937D03*
X0273422Y0297811D03*
X0263422Y0297811D03*
X0263422Y0332260D03*
X0273422Y0332260D03*
X0253422Y0332260D03*
X0243422Y0332260D03*
X0303638Y0332260D03*
X0313638Y0332260D03*
X0323638Y0332260D03*
X0333638Y0332260D03*
X0343638Y0332260D03*
X0353638Y0332260D03*
D11*
X0374308Y0291020D03*
X0374308Y0279996D03*
X0394485Y0279996D03*
X0394485Y0291020D03*
X0394485Y0251157D03*
X0394485Y0240134D03*
X0374308Y0240134D03*
X0374308Y0251157D03*
X0374308Y0211295D03*
X0374308Y0200272D03*
X0394485Y0200272D03*
X0394485Y0211295D03*
X0300489Y0198992D03*
X0290646Y0198992D03*
X0290646Y0187969D03*
X0300489Y0187969D03*
X0230115Y0172417D03*
X0230115Y0161394D03*
X0210430Y0161394D03*
X0200587Y0161394D03*
X0200587Y0172417D03*
X0210430Y0172417D03*
X0200587Y0187969D03*
X0200587Y0198992D03*
D12*
X0396847Y0155587D03*
X0407871Y0155587D03*
D13*
X0404327Y0201531D03*
X0404327Y0211531D03*
X0404327Y0221531D03*
X0384150Y0221531D03*
X0384150Y0211531D03*
X0384150Y0201531D03*
X0384150Y0241394D03*
X0384150Y0251394D03*
X0384150Y0261394D03*
X0404327Y0261394D03*
X0404327Y0251394D03*
X0404327Y0241394D03*
X0404327Y0281256D03*
X0404327Y0291256D03*
X0404327Y0301256D03*
X0384150Y0301256D03*
X0384150Y0291256D03*
X0384150Y0281256D03*
X0269465Y0268283D03*
X0259465Y0268283D03*
X0249465Y0268283D03*
X0239465Y0268283D03*
X0239465Y0248106D03*
X0249465Y0248106D03*
X0259465Y0248106D03*
X0269465Y0248106D03*
X0269465Y0227929D03*
X0259465Y0227929D03*
X0249465Y0227929D03*
X0239465Y0227929D03*
X0192457Y0227850D03*
X0182457Y0227850D03*
X0172457Y0227850D03*
X0162457Y0227850D03*
X0162457Y0237850D03*
X0172457Y0237850D03*
X0182457Y0237850D03*
X0192457Y0237850D03*
X0154820Y0190193D03*
X0154820Y0170193D03*
D14*
X0381406Y0129504D03*
X0399406Y0129504D03*
D15*
X0214859Y0341979D03*
X0214859Y0345179D03*
D16*
X0406788Y0175764D03*
D17*
X0396788Y0175764D03*
X0386788Y0175764D03*
X0376788Y0175764D03*
X0376788Y0165764D03*
X0386788Y0165764D03*
X0396788Y0165764D03*
X0406788Y0165764D03*
D18*
X0111512Y0174287D03*
X0111512Y0186098D03*
D19*
X0110607Y0210193D03*
X0120607Y0210193D03*
X0130607Y0210193D03*
X0140607Y0210193D03*
X0150607Y0210193D03*
X0160607Y0210193D03*
X0170607Y0210193D03*
X0180607Y0210193D03*
X0190607Y0210193D03*
X0200607Y0210193D03*
X0210607Y0210193D03*
X0220607Y0210193D03*
X0230607Y0210193D03*
X0240607Y0210193D03*
X0250607Y0210193D03*
X0260607Y0210193D03*
X0270607Y0210193D03*
X0280607Y0210193D03*
X0290607Y0210193D03*
X0300607Y0210193D03*
X0310607Y0210193D03*
X0320607Y0210193D03*
X0330607Y0210193D03*
X0340607Y0210193D03*
X0290607Y0170193D03*
X0290607Y0150193D03*
X0300607Y0150193D03*
X0310607Y0150193D03*
X0320607Y0150193D03*
X0330607Y0150193D03*
X0340607Y0150193D03*
X0280607Y0150193D03*
X0270607Y0150193D03*
X0260607Y0150193D03*
X0250607Y0150193D03*
X0240607Y0150193D03*
X0230607Y0150193D03*
X0220607Y0150193D03*
X0210607Y0150193D03*
X0200607Y0150193D03*
X0190607Y0150193D03*
X0180607Y0150193D03*
X0170607Y0150193D03*
X0160607Y0150193D03*
X0150607Y0150193D03*
X0140607Y0150193D03*
X0130607Y0150193D03*
X0120607Y0150193D03*
X0110607Y0150193D03*
X0240607Y0170193D03*
D20*
X0213875Y0255488D03*
X0207969Y0255488D03*
X0202064Y0255488D03*
X0196158Y0255488D03*
X0190253Y0255488D03*
X0184347Y0255488D03*
X0178442Y0255488D03*
X0172536Y0255488D03*
X0166631Y0255488D03*
X0160725Y0255488D03*
X0154820Y0255488D03*
X0148914Y0255488D03*
X0143009Y0255488D03*
X0143009Y0306669D03*
X0148914Y0306669D03*
X0154820Y0306669D03*
X0160725Y0306669D03*
X0166631Y0306669D03*
X0172536Y0306669D03*
X0178442Y0306669D03*
X0184347Y0306669D03*
X0190253Y0306669D03*
X0196158Y0306669D03*
X0202064Y0306669D03*
X0207969Y0306669D03*
X0213875Y0306669D03*
D21*
X0220764Y0301748D03*
X0220764Y0295843D03*
X0220764Y0289937D03*
X0220764Y0284031D03*
X0220764Y0278126D03*
X0220764Y0272220D03*
X0220764Y0266315D03*
X0220764Y0260409D03*
D22*
X0224760Y0332260D03*
X0214760Y0332260D03*
X0204760Y0332260D03*
X0194760Y0332260D03*
X0184760Y0332260D03*
X0174760Y0332260D03*
X0154760Y0332260D03*
D23*
X0164760Y0332260D03*
D24*
X0130705Y0085705D03*
X0394485Y0085705D03*
X0394485Y0329799D03*
X0130705Y0329799D03*
D25*
X0190253Y0249091D03*
X0200095Y0246138D03*
X0218304Y0233835D03*
X0222241Y0230390D03*
X0237005Y0189543D03*
X0242910Y0184130D03*
X0242910Y0177240D03*
X0264564Y0159524D03*
X0296552Y0159524D03*
X0293599Y0130488D03*
X0314760Y0125075D03*
X0349701Y0136394D03*
X0387103Y0150173D03*
X0327556Y0179701D03*
X0285725Y0205291D03*
X0211906Y0130488D03*
X0202556Y0130488D03*
X0184347Y0140823D03*
X0180902Y0124583D03*
X0157772Y0089150D03*
X0136611Y0113264D03*
X0130705Y0127043D03*
X0110036Y0128028D03*
X0182871Y0166413D03*
X0233068Y0125075D03*
X0216827Y0080291D03*
X0222241Y0073402D03*
X0206985Y0079799D03*
X0197635Y0079799D03*
X0193205Y0073894D03*
X0299012Y0080783D03*
X0321650Y0089642D03*
X0154820Y0229898D03*
X0142516Y0235803D03*
X0283757Y0310606D03*
X0287694Y0340626D03*
D26*
X0145961Y0219563D03*
D27*
X0226315Y0242055D03*
X0261115Y0195714D03*
M02*
