G75*
%MOIN*%
%OFA0B0*%
%FSLAX25Y25*%
%IPPOS*%
%LPD*%
%AMOC8*
5,1,8,0,0,1.08239X$1,22.5*
%
%ADD10C,0.06800*%
%ADD11R,0.07099X0.07898*%
%ADD12C,0.08800*%
%ADD13C,0.01480*%
%ADD14OC8,0.07400*%
%ADD15R,0.06312X0.04737*%
%ADD16R,0.07887X0.07099*%
%ADD17R,0.07099X0.07887*%
%ADD18C,0.06600*%
%ADD19R,0.08674X0.08674*%
%ADD20R,0.08674X0.04737*%
%ADD21R,0.04737X0.07887*%
%ADD22R,0.06737X0.06737*%
%ADD23C,0.06737*%
%ADD24C,0.13792*%
%ADD25C,0.08200*%
%ADD26C,0.05556*%
%ADD27C,0.07800*%
%ADD28C,0.09300*%
%ADD29C,0.07400*%
%ADD30C,0.07099*%
%ADD31C,0.03778*%
D10*
X0077732Y0193272D02*
X0083732Y0193272D01*
X0083732Y0203272D02*
X0077732Y0203272D01*
X0077130Y0242102D02*
X0077130Y0248102D01*
X0087130Y0248102D02*
X0087130Y0242102D01*
X0067130Y0242102D02*
X0067130Y0248102D01*
X0057130Y0248102D02*
X0057130Y0242102D01*
D11*
G36*
X0164582Y0166496D02*
X0159563Y0171515D01*
X0165146Y0177098D01*
X0170165Y0172079D01*
X0164582Y0166496D01*
G37*
G36*
X0172500Y0158579D02*
X0167481Y0163598D01*
X0173064Y0169181D01*
X0178083Y0164162D01*
X0172500Y0158579D01*
G37*
G36*
X0219603Y0164654D02*
X0224622Y0169673D01*
X0230205Y0164090D01*
X0225186Y0159071D01*
X0219603Y0164654D01*
G37*
G36*
X0227520Y0172571D02*
X0232539Y0177590D01*
X0238122Y0172007D01*
X0233103Y0166988D01*
X0227520Y0172571D01*
G37*
X0203949Y0240181D03*
X0192752Y0240181D03*
D12*
X0032996Y0194697D03*
X0032996Y0176697D03*
D13*
X0094870Y0056516D02*
X0094130Y0057256D01*
X0096582Y0057256D01*
X0098315Y0055523D01*
X0098315Y0053071D01*
X0096582Y0051338D01*
X0094130Y0051338D01*
X0092397Y0053071D01*
X0092397Y0055523D01*
X0094130Y0057256D01*
X0094590Y0056146D01*
X0096122Y0056146D01*
X0097205Y0055063D01*
X0097205Y0053531D01*
X0096122Y0052448D01*
X0094590Y0052448D01*
X0093507Y0053531D01*
X0093507Y0055063D01*
X0094590Y0056146D01*
X0095050Y0055036D01*
X0095662Y0055036D01*
X0096095Y0054603D01*
X0096095Y0053991D01*
X0095662Y0053558D01*
X0095050Y0053558D01*
X0094617Y0053991D01*
X0094617Y0054603D01*
X0095050Y0055036D01*
X0100438Y0050949D02*
X0099698Y0051689D01*
X0102150Y0051689D01*
X0103883Y0049956D01*
X0103883Y0047504D01*
X0102150Y0045771D01*
X0099698Y0045771D01*
X0097965Y0047504D01*
X0097965Y0049956D01*
X0099698Y0051689D01*
X0100158Y0050579D01*
X0101690Y0050579D01*
X0102773Y0049496D01*
X0102773Y0047964D01*
X0101690Y0046881D01*
X0100158Y0046881D01*
X0099075Y0047964D01*
X0099075Y0049496D01*
X0100158Y0050579D01*
X0100618Y0049469D01*
X0101230Y0049469D01*
X0101663Y0049036D01*
X0101663Y0048424D01*
X0101230Y0047991D01*
X0100618Y0047991D01*
X0100185Y0048424D01*
X0100185Y0049036D01*
X0100618Y0049469D01*
X0106006Y0045381D02*
X0105266Y0046121D01*
X0107718Y0046121D01*
X0109451Y0044388D01*
X0109451Y0041936D01*
X0107718Y0040203D01*
X0105266Y0040203D01*
X0103533Y0041936D01*
X0103533Y0044388D01*
X0105266Y0046121D01*
X0105726Y0045011D01*
X0107258Y0045011D01*
X0108341Y0043928D01*
X0108341Y0042396D01*
X0107258Y0041313D01*
X0105726Y0041313D01*
X0104643Y0042396D01*
X0104643Y0043928D01*
X0105726Y0045011D01*
X0106186Y0043901D01*
X0106798Y0043901D01*
X0107231Y0043468D01*
X0107231Y0042856D01*
X0106798Y0042423D01*
X0106186Y0042423D01*
X0105753Y0042856D01*
X0105753Y0043468D01*
X0106186Y0043901D01*
X0111573Y0039813D02*
X0110833Y0040553D01*
X0113285Y0040553D01*
X0115018Y0038820D01*
X0115018Y0036368D01*
X0113285Y0034635D01*
X0110833Y0034635D01*
X0109100Y0036368D01*
X0109100Y0038820D01*
X0110833Y0040553D01*
X0111293Y0039443D01*
X0112825Y0039443D01*
X0113908Y0038360D01*
X0113908Y0036828D01*
X0112825Y0035745D01*
X0111293Y0035745D01*
X0110210Y0036828D01*
X0110210Y0038360D01*
X0111293Y0039443D01*
X0111753Y0038333D01*
X0112365Y0038333D01*
X0112798Y0037900D01*
X0112798Y0037288D01*
X0112365Y0036855D01*
X0111753Y0036855D01*
X0111320Y0037288D01*
X0111320Y0037900D01*
X0111753Y0038333D01*
X0117141Y0034245D02*
X0116401Y0034985D01*
X0118853Y0034985D01*
X0120586Y0033252D01*
X0120586Y0030800D01*
X0118853Y0029067D01*
X0116401Y0029067D01*
X0114668Y0030800D01*
X0114668Y0033252D01*
X0116401Y0034985D01*
X0116861Y0033875D01*
X0118393Y0033875D01*
X0119476Y0032792D01*
X0119476Y0031260D01*
X0118393Y0030177D01*
X0116861Y0030177D01*
X0115778Y0031260D01*
X0115778Y0032792D01*
X0116861Y0033875D01*
X0117321Y0032765D01*
X0117933Y0032765D01*
X0118366Y0032332D01*
X0118366Y0031720D01*
X0117933Y0031287D01*
X0117321Y0031287D01*
X0116888Y0031720D01*
X0116888Y0032332D01*
X0117321Y0032765D01*
X0122709Y0028678D02*
X0121969Y0029418D01*
X0124421Y0029418D01*
X0126154Y0027685D01*
X0126154Y0025233D01*
X0124421Y0023500D01*
X0121969Y0023500D01*
X0120236Y0025233D01*
X0120236Y0027685D01*
X0121969Y0029418D01*
X0122429Y0028308D01*
X0123961Y0028308D01*
X0125044Y0027225D01*
X0125044Y0025693D01*
X0123961Y0024610D01*
X0122429Y0024610D01*
X0121346Y0025693D01*
X0121346Y0027225D01*
X0122429Y0028308D01*
X0122889Y0027198D01*
X0123501Y0027198D01*
X0123934Y0026765D01*
X0123934Y0026153D01*
X0123501Y0025720D01*
X0122889Y0025720D01*
X0122456Y0026153D01*
X0122456Y0026765D01*
X0122889Y0027198D01*
X0271287Y0025973D02*
X0270547Y0025233D01*
X0270547Y0027685D01*
X0272280Y0029418D01*
X0274732Y0029418D01*
X0276465Y0027685D01*
X0276465Y0025233D01*
X0274732Y0023500D01*
X0272280Y0023500D01*
X0270547Y0025233D01*
X0271657Y0025693D01*
X0271657Y0027225D01*
X0272740Y0028308D01*
X0274272Y0028308D01*
X0275355Y0027225D01*
X0275355Y0025693D01*
X0274272Y0024610D01*
X0272740Y0024610D01*
X0271657Y0025693D01*
X0272767Y0026153D01*
X0272767Y0026765D01*
X0273200Y0027198D01*
X0273812Y0027198D01*
X0274245Y0026765D01*
X0274245Y0026153D01*
X0273812Y0025720D01*
X0273200Y0025720D01*
X0272767Y0026153D01*
X0276855Y0031540D02*
X0276115Y0030800D01*
X0276115Y0033252D01*
X0277848Y0034985D01*
X0280300Y0034985D01*
X0282033Y0033252D01*
X0282033Y0030800D01*
X0280300Y0029067D01*
X0277848Y0029067D01*
X0276115Y0030800D01*
X0277225Y0031260D01*
X0277225Y0032792D01*
X0278308Y0033875D01*
X0279840Y0033875D01*
X0280923Y0032792D01*
X0280923Y0031260D01*
X0279840Y0030177D01*
X0278308Y0030177D01*
X0277225Y0031260D01*
X0278335Y0031720D01*
X0278335Y0032332D01*
X0278768Y0032765D01*
X0279380Y0032765D01*
X0279813Y0032332D01*
X0279813Y0031720D01*
X0279380Y0031287D01*
X0278768Y0031287D01*
X0278335Y0031720D01*
X0282422Y0037108D02*
X0281682Y0036368D01*
X0281682Y0038820D01*
X0283415Y0040553D01*
X0285867Y0040553D01*
X0287600Y0038820D01*
X0287600Y0036368D01*
X0285867Y0034635D01*
X0283415Y0034635D01*
X0281682Y0036368D01*
X0282792Y0036828D01*
X0282792Y0038360D01*
X0283875Y0039443D01*
X0285407Y0039443D01*
X0286490Y0038360D01*
X0286490Y0036828D01*
X0285407Y0035745D01*
X0283875Y0035745D01*
X0282792Y0036828D01*
X0283902Y0037288D01*
X0283902Y0037900D01*
X0284335Y0038333D01*
X0284947Y0038333D01*
X0285380Y0037900D01*
X0285380Y0037288D01*
X0284947Y0036855D01*
X0284335Y0036855D01*
X0283902Y0037288D01*
X0287990Y0042676D02*
X0287250Y0041936D01*
X0287250Y0044388D01*
X0288983Y0046121D01*
X0291435Y0046121D01*
X0293168Y0044388D01*
X0293168Y0041936D01*
X0291435Y0040203D01*
X0288983Y0040203D01*
X0287250Y0041936D01*
X0288360Y0042396D01*
X0288360Y0043928D01*
X0289443Y0045011D01*
X0290975Y0045011D01*
X0292058Y0043928D01*
X0292058Y0042396D01*
X0290975Y0041313D01*
X0289443Y0041313D01*
X0288360Y0042396D01*
X0289470Y0042856D01*
X0289470Y0043468D01*
X0289903Y0043901D01*
X0290515Y0043901D01*
X0290948Y0043468D01*
X0290948Y0042856D01*
X0290515Y0042423D01*
X0289903Y0042423D01*
X0289470Y0042856D01*
X0293558Y0048244D02*
X0292818Y0047504D01*
X0292818Y0049956D01*
X0294551Y0051689D01*
X0297003Y0051689D01*
X0298736Y0049956D01*
X0298736Y0047504D01*
X0297003Y0045771D01*
X0294551Y0045771D01*
X0292818Y0047504D01*
X0293928Y0047964D01*
X0293928Y0049496D01*
X0295011Y0050579D01*
X0296543Y0050579D01*
X0297626Y0049496D01*
X0297626Y0047964D01*
X0296543Y0046881D01*
X0295011Y0046881D01*
X0293928Y0047964D01*
X0295038Y0048424D01*
X0295038Y0049036D01*
X0295471Y0049469D01*
X0296083Y0049469D01*
X0296516Y0049036D01*
X0296516Y0048424D01*
X0296083Y0047991D01*
X0295471Y0047991D01*
X0295038Y0048424D01*
X0299126Y0053811D02*
X0298386Y0053071D01*
X0298386Y0055523D01*
X0300119Y0057256D01*
X0302571Y0057256D01*
X0304304Y0055523D01*
X0304304Y0053071D01*
X0302571Y0051338D01*
X0300119Y0051338D01*
X0298386Y0053071D01*
X0299496Y0053531D01*
X0299496Y0055063D01*
X0300579Y0056146D01*
X0302111Y0056146D01*
X0303194Y0055063D01*
X0303194Y0053531D01*
X0302111Y0052448D01*
X0300579Y0052448D01*
X0299496Y0053531D01*
X0300606Y0053991D01*
X0300606Y0054603D01*
X0301039Y0055036D01*
X0301651Y0055036D01*
X0302084Y0054603D01*
X0302084Y0053991D01*
X0301651Y0053558D01*
X0301039Y0053558D01*
X0300606Y0053991D01*
D14*
X0218035Y0024138D03*
X0210161Y0024138D03*
X0202287Y0024138D03*
X0194413Y0024138D03*
X0186539Y0024138D03*
X0178665Y0024138D03*
D15*
X0154650Y0107504D03*
X0154650Y0114984D03*
X0163311Y0111244D03*
X0162819Y0129157D03*
X0162819Y0136638D03*
X0154157Y0132898D03*
X0112622Y0136638D03*
X0112622Y0129157D03*
X0103961Y0132898D03*
X0104453Y0114984D03*
X0104453Y0107504D03*
X0113114Y0111244D03*
X0218626Y0107504D03*
X0218626Y0114984D03*
X0227287Y0111244D03*
X0226795Y0129157D03*
X0226795Y0136638D03*
X0218134Y0132898D03*
D16*
X0207701Y0138409D03*
X0207701Y0127386D03*
X0207701Y0116756D03*
X0207701Y0105732D03*
X0193921Y0116559D03*
X0193921Y0127583D03*
X0173744Y0127386D03*
X0173744Y0116756D03*
X0173744Y0105732D03*
X0143724Y0105732D03*
X0143724Y0116756D03*
X0143724Y0127386D03*
X0143724Y0138409D03*
X0123547Y0138409D03*
X0123547Y0127386D03*
X0123547Y0116756D03*
X0123547Y0105732D03*
X0093528Y0105732D03*
X0093528Y0116756D03*
X0093528Y0127386D03*
X0093528Y0138409D03*
X0123547Y0082307D03*
X0133390Y0082307D03*
X0133390Y0071283D03*
X0123547Y0071283D03*
X0193429Y0071283D03*
X0193429Y0082307D03*
X0213606Y0082307D03*
X0213606Y0071283D03*
X0237720Y0105732D03*
X0237720Y0116756D03*
X0237720Y0127386D03*
X0237720Y0138409D03*
X0263311Y0112819D03*
X0263311Y0101795D03*
X0283488Y0131323D03*
X0283488Y0142346D03*
X0253469Y0161835D03*
X0253469Y0172858D03*
X0173744Y0138409D03*
X0240673Y0255339D03*
X0240673Y0266362D03*
D17*
G36*
X0282660Y0336955D02*
X0287679Y0341974D01*
X0293254Y0336399D01*
X0288235Y0331380D01*
X0282660Y0336955D01*
G37*
G36*
X0285380Y0344273D02*
X0280361Y0339254D01*
X0274786Y0344829D01*
X0279805Y0349848D01*
X0285380Y0344273D01*
G37*
G36*
X0293175Y0352068D02*
X0288156Y0347049D01*
X0282581Y0352624D01*
X0287600Y0357643D01*
X0293175Y0352068D01*
G37*
G36*
X0290455Y0344750D02*
X0295474Y0349769D01*
X0301049Y0344194D01*
X0296030Y0339175D01*
X0290455Y0344750D01*
G37*
G36*
X0346242Y0293408D02*
X0341223Y0298427D01*
X0346798Y0304002D01*
X0351817Y0298983D01*
X0346242Y0293408D01*
G37*
G36*
X0354037Y0285613D02*
X0349018Y0290632D01*
X0354593Y0296207D01*
X0359612Y0291188D01*
X0354037Y0285613D01*
G37*
G36*
X0374455Y0274391D02*
X0369436Y0269372D01*
X0363861Y0274947D01*
X0368880Y0279966D01*
X0374455Y0274391D01*
G37*
G36*
X0382329Y0267010D02*
X0377310Y0261991D01*
X0371735Y0267566D01*
X0376754Y0272585D01*
X0382329Y0267010D01*
G37*
G36*
X0390124Y0274804D02*
X0385105Y0269785D01*
X0379530Y0275360D01*
X0384549Y0280379D01*
X0390124Y0274804D01*
G37*
G36*
X0382250Y0282186D02*
X0377231Y0277167D01*
X0371656Y0282742D01*
X0376675Y0287761D01*
X0382250Y0282186D01*
G37*
X0303272Y0163409D03*
X0292248Y0163409D03*
X0302583Y0126992D03*
X0302583Y0117642D03*
X0313606Y0117642D03*
X0313606Y0126992D03*
G36*
X0109022Y0341974D02*
X0114041Y0336955D01*
X0108466Y0331380D01*
X0103447Y0336399D01*
X0109022Y0341974D01*
G37*
G36*
X0116896Y0349848D02*
X0121915Y0344829D01*
X0116340Y0339254D01*
X0111321Y0344273D01*
X0116896Y0349848D01*
G37*
G36*
X0109101Y0357643D02*
X0114120Y0352624D01*
X0108545Y0347049D01*
X0103526Y0352068D01*
X0109101Y0357643D01*
G37*
G36*
X0101227Y0349769D02*
X0106246Y0344750D01*
X0100671Y0339175D01*
X0095652Y0344194D01*
X0101227Y0349769D01*
G37*
G36*
X0044884Y0298983D02*
X0049903Y0304002D01*
X0055478Y0298427D01*
X0050459Y0293408D01*
X0044884Y0298983D01*
G37*
G36*
X0037089Y0291188D02*
X0042108Y0296207D01*
X0047683Y0290632D01*
X0042664Y0285613D01*
X0037089Y0291188D01*
G37*
G36*
X0020026Y0287761D02*
X0025045Y0282742D01*
X0019470Y0277167D01*
X0014451Y0282186D01*
X0020026Y0287761D01*
G37*
G36*
X0012152Y0280379D02*
X0017171Y0275360D01*
X0011596Y0269785D01*
X0006577Y0274804D01*
X0012152Y0280379D01*
G37*
G36*
X0019947Y0272585D02*
X0024966Y0267566D01*
X0019391Y0261991D01*
X0014372Y0267010D01*
X0019947Y0272585D01*
G37*
G36*
X0027821Y0279966D02*
X0032840Y0274947D01*
X0027265Y0269372D01*
X0022246Y0274391D01*
X0027821Y0279966D01*
G37*
D18*
X0083429Y0152071D03*
X0093429Y0152071D03*
X0103429Y0152071D03*
X0113429Y0152071D03*
X0123429Y0152071D03*
X0133429Y0152071D03*
X0133429Y0142071D03*
X0133429Y0132071D03*
X0133429Y0122071D03*
X0133429Y0112071D03*
X0133429Y0102071D03*
X0133429Y0092071D03*
X0123429Y0092071D03*
X0113429Y0092071D03*
X0103429Y0092071D03*
X0093429Y0092071D03*
X0083429Y0092071D03*
X0143429Y0092071D03*
X0153429Y0092071D03*
X0163429Y0092071D03*
X0173429Y0092071D03*
X0183429Y0092071D03*
X0183429Y0102071D03*
X0183429Y0112071D03*
X0183429Y0122071D03*
X0183429Y0132071D03*
X0183429Y0142071D03*
X0183429Y0152071D03*
X0173429Y0152071D03*
X0163429Y0152071D03*
X0153429Y0152071D03*
X0143429Y0152071D03*
X0193429Y0152071D03*
X0203429Y0152071D03*
X0213429Y0152071D03*
X0223429Y0152071D03*
X0233429Y0152071D03*
X0243429Y0152071D03*
X0253429Y0152071D03*
X0263429Y0152071D03*
X0273429Y0152071D03*
X0283429Y0152071D03*
X0293429Y0152071D03*
X0303429Y0152071D03*
X0313429Y0152071D03*
X0313429Y0092071D03*
X0303429Y0092071D03*
X0293429Y0092071D03*
X0283429Y0092071D03*
X0273429Y0092071D03*
X0263429Y0092071D03*
X0253429Y0092071D03*
X0243429Y0092071D03*
X0233429Y0092071D03*
X0223429Y0092071D03*
X0213429Y0092071D03*
X0203429Y0092071D03*
X0193429Y0092071D03*
D19*
X0168035Y0256028D03*
X0168035Y0292248D03*
X0228665Y0292248D03*
X0228665Y0256028D03*
D20*
X0333685Y0195398D03*
X0333685Y0189492D03*
X0333685Y0183587D03*
X0333685Y0177681D03*
X0333685Y0171776D03*
X0333685Y0165870D03*
X0333685Y0159965D03*
X0333685Y0154059D03*
X0333685Y0148154D03*
X0333685Y0142248D03*
X0333685Y0136343D03*
X0333685Y0130437D03*
X0333685Y0124531D03*
X0384866Y0124531D03*
X0384866Y0130437D03*
X0384866Y0136343D03*
X0384866Y0142248D03*
X0384866Y0148154D03*
X0384866Y0154059D03*
X0384866Y0159965D03*
X0384866Y0165870D03*
X0384866Y0171776D03*
X0384866Y0177681D03*
X0384866Y0183587D03*
X0384866Y0189492D03*
X0384866Y0195398D03*
D21*
X0379945Y0117642D03*
X0374039Y0117642D03*
X0368134Y0117642D03*
X0362228Y0117642D03*
X0356323Y0117642D03*
X0350417Y0117642D03*
X0344512Y0117642D03*
X0338606Y0117642D03*
D22*
X0287996Y0183350D03*
X0287996Y0213350D03*
D23*
X0287996Y0203350D03*
X0287996Y0193350D03*
X0277996Y0193350D03*
X0277996Y0183350D03*
X0277996Y0203350D03*
X0277996Y0213350D03*
D24*
X0073350Y0073350D03*
X0323350Y0073350D03*
X0323350Y0323350D03*
X0073350Y0323350D03*
D25*
X0105387Y0291314D03*
X0098315Y0284243D03*
X0091244Y0277172D03*
X0099023Y0269394D03*
X0106094Y0276465D03*
X0113165Y0283536D03*
X0120236Y0290607D03*
X0127307Y0297678D03*
X0119529Y0305456D03*
X0112458Y0298385D03*
X0178350Y0322772D03*
X0188350Y0322772D03*
X0198350Y0322772D03*
X0208350Y0322772D03*
X0218350Y0322772D03*
X0218350Y0333772D03*
X0208350Y0333772D03*
X0198350Y0333772D03*
X0188350Y0333772D03*
X0178350Y0333772D03*
X0269394Y0297678D03*
X0276465Y0290607D03*
X0283536Y0283536D03*
X0291314Y0291314D03*
X0284243Y0298385D03*
X0277172Y0305456D03*
X0298385Y0284243D03*
X0305456Y0277172D03*
X0297678Y0269394D03*
X0290607Y0276465D03*
X0035991Y0255934D03*
X0018191Y0255934D03*
X0018191Y0230334D03*
X0035991Y0230334D03*
D26*
X0042242Y0271572D03*
X0046417Y0275748D03*
X0050593Y0279924D03*
X0054769Y0284100D03*
X0058945Y0288276D03*
X0063121Y0292451D03*
X0047373Y0308199D03*
X0043197Y0304024D03*
X0039021Y0299848D03*
X0034845Y0295672D03*
X0030669Y0291496D03*
X0026493Y0287320D03*
X0088501Y0349328D03*
X0092677Y0353504D03*
X0096853Y0357680D03*
X0101029Y0361856D03*
X0105205Y0366031D03*
X0109381Y0370207D03*
X0287320Y0370207D03*
X0291496Y0366031D03*
X0295672Y0361856D03*
X0299848Y0357680D03*
X0304024Y0353504D03*
X0308199Y0349328D03*
X0349328Y0308199D03*
X0353504Y0304024D03*
X0357680Y0299848D03*
X0361856Y0295672D03*
X0366031Y0291496D03*
X0370207Y0287320D03*
X0354459Y0271572D03*
X0350283Y0275748D03*
X0346108Y0279924D03*
X0341932Y0284100D03*
X0337756Y0288276D03*
X0333580Y0292451D03*
D27*
X0126992Y0211146D03*
X0126992Y0185555D03*
D28*
X0188508Y0173744D03*
X0208193Y0173744D03*
X0208193Y0222957D03*
X0188508Y0222957D03*
D29*
X0171776Y0198350D03*
X0224925Y0198350D03*
D30*
X0216067Y0198350D03*
X0180634Y0198350D03*
D31*
X0153567Y0143724D03*
X0156520Y0124531D03*
X0112228Y0120594D03*
X0142740Y0067937D03*
X0150614Y0058587D03*
X0155535Y0058587D03*
X0160457Y0058587D03*
X0160457Y0050220D03*
X0155535Y0050220D03*
X0150614Y0050220D03*
X0136343Y0054157D03*
X0125784Y0064000D03*
X0103370Y0064000D03*
X0150614Y0031520D03*
X0150614Y0027583D03*
X0150614Y0023646D03*
X0155535Y0023646D03*
X0155535Y0027583D03*
X0155535Y0031520D03*
X0160457Y0031520D03*
X0160457Y0027583D03*
X0160457Y0023646D03*
X0167839Y0054157D03*
X0173252Y0064000D03*
X0200811Y0064492D03*
X0207209Y0067937D03*
X0220988Y0067445D03*
X0225417Y0064000D03*
X0233291Y0058587D03*
X0238213Y0058587D03*
X0243134Y0058587D03*
X0250516Y0054650D03*
X0243134Y0050220D03*
X0238213Y0050220D03*
X0233291Y0050220D03*
X0223449Y0054650D03*
X0233291Y0031520D03*
X0233291Y0027583D03*
X0233291Y0023646D03*
X0238213Y0023646D03*
X0238213Y0027583D03*
X0238213Y0031520D03*
X0243134Y0031520D03*
X0243134Y0027583D03*
X0243134Y0023646D03*
X0271185Y0064000D03*
X0255929Y0070890D03*
X0268724Y0082701D03*
X0293823Y0082701D03*
X0340083Y0130437D03*
X0317445Y0145201D03*
X0295299Y0133882D03*
X0258882Y0146677D03*
X0243626Y0143232D03*
X0218528Y0139787D03*
X0218528Y0126008D03*
X0226894Y0121579D03*
X0228370Y0085161D03*
X0200811Y0082209D03*
X0306126Y0177189D03*
X0341559Y0193921D03*
X0346972Y0195398D03*
X0297760Y0224925D03*
X0116947Y0242150D03*
X0053173Y0210161D03*
X0046776Y0210161D03*
X0046776Y0204256D03*
X0046776Y0198350D03*
X0046776Y0179157D03*
X0046776Y0173252D03*
X0046776Y0167346D03*
X0053173Y0167346D03*
M02*
