G75*
%MOIN*%
%OFA0B0*%
%FSLAX25Y25*%
%IPPOS*%
%LPD*%
%AMOC8*
5,1,8,0,0,1.08239X$1,22.5*
%
%ADD10R,0.10249X0.11824*%
%ADD11C,0.08800*%
%ADD12C,0.01480*%
%ADD13OC8,0.07400*%
%ADD14C,0.06600*%
%ADD15R,0.03162X0.09461*%
%ADD16R,0.06737X0.06737*%
%ADD17C,0.06737*%
%ADD18R,0.07887X0.07099*%
%ADD19C,0.17729*%
%ADD20C,0.08200*%
%ADD21C,0.05556*%
%ADD22C,0.07800*%
%ADD23C,0.06800*%
%ADD24C,0.09300*%
%ADD25C,0.07400*%
%ADD26C,0.07099*%
%ADD27R,0.03300X0.05800*%
%ADD28C,0.04343*%
%ADD29C,0.03778*%
D10*
X0010555Y0176697D03*
X0010555Y0200713D03*
X0055437Y0200713D03*
X0055437Y0176697D03*
D11*
X0032996Y0176697D03*
X0032996Y0194697D03*
D12*
X0094870Y0056516D02*
X0094130Y0057256D01*
X0096582Y0057256D01*
X0098315Y0055523D01*
X0098315Y0053071D01*
X0096582Y0051338D01*
X0094130Y0051338D01*
X0092397Y0053071D01*
X0092397Y0055523D01*
X0094130Y0057256D01*
X0094590Y0056146D01*
X0096122Y0056146D01*
X0097205Y0055063D01*
X0097205Y0053531D01*
X0096122Y0052448D01*
X0094590Y0052448D01*
X0093507Y0053531D01*
X0093507Y0055063D01*
X0094590Y0056146D01*
X0095050Y0055036D01*
X0095662Y0055036D01*
X0096095Y0054603D01*
X0096095Y0053991D01*
X0095662Y0053558D01*
X0095050Y0053558D01*
X0094617Y0053991D01*
X0094617Y0054603D01*
X0095050Y0055036D01*
X0100438Y0050949D02*
X0099698Y0051689D01*
X0102150Y0051689D01*
X0103883Y0049956D01*
X0103883Y0047504D01*
X0102150Y0045771D01*
X0099698Y0045771D01*
X0097965Y0047504D01*
X0097965Y0049956D01*
X0099698Y0051689D01*
X0100158Y0050579D01*
X0101690Y0050579D01*
X0102773Y0049496D01*
X0102773Y0047964D01*
X0101690Y0046881D01*
X0100158Y0046881D01*
X0099075Y0047964D01*
X0099075Y0049496D01*
X0100158Y0050579D01*
X0100618Y0049469D01*
X0101230Y0049469D01*
X0101663Y0049036D01*
X0101663Y0048424D01*
X0101230Y0047991D01*
X0100618Y0047991D01*
X0100185Y0048424D01*
X0100185Y0049036D01*
X0100618Y0049469D01*
X0106006Y0045381D02*
X0105266Y0046121D01*
X0107718Y0046121D01*
X0109451Y0044388D01*
X0109451Y0041936D01*
X0107718Y0040203D01*
X0105266Y0040203D01*
X0103533Y0041936D01*
X0103533Y0044388D01*
X0105266Y0046121D01*
X0105726Y0045011D01*
X0107258Y0045011D01*
X0108341Y0043928D01*
X0108341Y0042396D01*
X0107258Y0041313D01*
X0105726Y0041313D01*
X0104643Y0042396D01*
X0104643Y0043928D01*
X0105726Y0045011D01*
X0106186Y0043901D01*
X0106798Y0043901D01*
X0107231Y0043468D01*
X0107231Y0042856D01*
X0106798Y0042423D01*
X0106186Y0042423D01*
X0105753Y0042856D01*
X0105753Y0043468D01*
X0106186Y0043901D01*
X0111573Y0039813D02*
X0110833Y0040553D01*
X0113285Y0040553D01*
X0115018Y0038820D01*
X0115018Y0036368D01*
X0113285Y0034635D01*
X0110833Y0034635D01*
X0109100Y0036368D01*
X0109100Y0038820D01*
X0110833Y0040553D01*
X0111293Y0039443D01*
X0112825Y0039443D01*
X0113908Y0038360D01*
X0113908Y0036828D01*
X0112825Y0035745D01*
X0111293Y0035745D01*
X0110210Y0036828D01*
X0110210Y0038360D01*
X0111293Y0039443D01*
X0111753Y0038333D01*
X0112365Y0038333D01*
X0112798Y0037900D01*
X0112798Y0037288D01*
X0112365Y0036855D01*
X0111753Y0036855D01*
X0111320Y0037288D01*
X0111320Y0037900D01*
X0111753Y0038333D01*
X0117141Y0034245D02*
X0116401Y0034985D01*
X0118853Y0034985D01*
X0120586Y0033252D01*
X0120586Y0030800D01*
X0118853Y0029067D01*
X0116401Y0029067D01*
X0114668Y0030800D01*
X0114668Y0033252D01*
X0116401Y0034985D01*
X0116861Y0033875D01*
X0118393Y0033875D01*
X0119476Y0032792D01*
X0119476Y0031260D01*
X0118393Y0030177D01*
X0116861Y0030177D01*
X0115778Y0031260D01*
X0115778Y0032792D01*
X0116861Y0033875D01*
X0117321Y0032765D01*
X0117933Y0032765D01*
X0118366Y0032332D01*
X0118366Y0031720D01*
X0117933Y0031287D01*
X0117321Y0031287D01*
X0116888Y0031720D01*
X0116888Y0032332D01*
X0117321Y0032765D01*
X0122709Y0028678D02*
X0121969Y0029418D01*
X0124421Y0029418D01*
X0126154Y0027685D01*
X0126154Y0025233D01*
X0124421Y0023500D01*
X0121969Y0023500D01*
X0120236Y0025233D01*
X0120236Y0027685D01*
X0121969Y0029418D01*
X0122429Y0028308D01*
X0123961Y0028308D01*
X0125044Y0027225D01*
X0125044Y0025693D01*
X0123961Y0024610D01*
X0122429Y0024610D01*
X0121346Y0025693D01*
X0121346Y0027225D01*
X0122429Y0028308D01*
X0122889Y0027198D01*
X0123501Y0027198D01*
X0123934Y0026765D01*
X0123934Y0026153D01*
X0123501Y0025720D01*
X0122889Y0025720D01*
X0122456Y0026153D01*
X0122456Y0026765D01*
X0122889Y0027198D01*
X0271287Y0025973D02*
X0270547Y0025233D01*
X0270547Y0027685D01*
X0272280Y0029418D01*
X0274732Y0029418D01*
X0276465Y0027685D01*
X0276465Y0025233D01*
X0274732Y0023500D01*
X0272280Y0023500D01*
X0270547Y0025233D01*
X0271657Y0025693D01*
X0271657Y0027225D01*
X0272740Y0028308D01*
X0274272Y0028308D01*
X0275355Y0027225D01*
X0275355Y0025693D01*
X0274272Y0024610D01*
X0272740Y0024610D01*
X0271657Y0025693D01*
X0272767Y0026153D01*
X0272767Y0026765D01*
X0273200Y0027198D01*
X0273812Y0027198D01*
X0274245Y0026765D01*
X0274245Y0026153D01*
X0273812Y0025720D01*
X0273200Y0025720D01*
X0272767Y0026153D01*
X0276855Y0031540D02*
X0276115Y0030800D01*
X0276115Y0033252D01*
X0277848Y0034985D01*
X0280300Y0034985D01*
X0282033Y0033252D01*
X0282033Y0030800D01*
X0280300Y0029067D01*
X0277848Y0029067D01*
X0276115Y0030800D01*
X0277225Y0031260D01*
X0277225Y0032792D01*
X0278308Y0033875D01*
X0279840Y0033875D01*
X0280923Y0032792D01*
X0280923Y0031260D01*
X0279840Y0030177D01*
X0278308Y0030177D01*
X0277225Y0031260D01*
X0278335Y0031720D01*
X0278335Y0032332D01*
X0278768Y0032765D01*
X0279380Y0032765D01*
X0279813Y0032332D01*
X0279813Y0031720D01*
X0279380Y0031287D01*
X0278768Y0031287D01*
X0278335Y0031720D01*
X0282422Y0037108D02*
X0281682Y0036368D01*
X0281682Y0038820D01*
X0283415Y0040553D01*
X0285867Y0040553D01*
X0287600Y0038820D01*
X0287600Y0036368D01*
X0285867Y0034635D01*
X0283415Y0034635D01*
X0281682Y0036368D01*
X0282792Y0036828D01*
X0282792Y0038360D01*
X0283875Y0039443D01*
X0285407Y0039443D01*
X0286490Y0038360D01*
X0286490Y0036828D01*
X0285407Y0035745D01*
X0283875Y0035745D01*
X0282792Y0036828D01*
X0283902Y0037288D01*
X0283902Y0037900D01*
X0284335Y0038333D01*
X0284947Y0038333D01*
X0285380Y0037900D01*
X0285380Y0037288D01*
X0284947Y0036855D01*
X0284335Y0036855D01*
X0283902Y0037288D01*
X0287990Y0042676D02*
X0287250Y0041936D01*
X0287250Y0044388D01*
X0288983Y0046121D01*
X0291435Y0046121D01*
X0293168Y0044388D01*
X0293168Y0041936D01*
X0291435Y0040203D01*
X0288983Y0040203D01*
X0287250Y0041936D01*
X0288360Y0042396D01*
X0288360Y0043928D01*
X0289443Y0045011D01*
X0290975Y0045011D01*
X0292058Y0043928D01*
X0292058Y0042396D01*
X0290975Y0041313D01*
X0289443Y0041313D01*
X0288360Y0042396D01*
X0289470Y0042856D01*
X0289470Y0043468D01*
X0289903Y0043901D01*
X0290515Y0043901D01*
X0290948Y0043468D01*
X0290948Y0042856D01*
X0290515Y0042423D01*
X0289903Y0042423D01*
X0289470Y0042856D01*
X0293558Y0048244D02*
X0292818Y0047504D01*
X0292818Y0049956D01*
X0294551Y0051689D01*
X0297003Y0051689D01*
X0298736Y0049956D01*
X0298736Y0047504D01*
X0297003Y0045771D01*
X0294551Y0045771D01*
X0292818Y0047504D01*
X0293928Y0047964D01*
X0293928Y0049496D01*
X0295011Y0050579D01*
X0296543Y0050579D01*
X0297626Y0049496D01*
X0297626Y0047964D01*
X0296543Y0046881D01*
X0295011Y0046881D01*
X0293928Y0047964D01*
X0295038Y0048424D01*
X0295038Y0049036D01*
X0295471Y0049469D01*
X0296083Y0049469D01*
X0296516Y0049036D01*
X0296516Y0048424D01*
X0296083Y0047991D01*
X0295471Y0047991D01*
X0295038Y0048424D01*
X0299126Y0053811D02*
X0298386Y0053071D01*
X0298386Y0055523D01*
X0300119Y0057256D01*
X0302571Y0057256D01*
X0304304Y0055523D01*
X0304304Y0053071D01*
X0302571Y0051338D01*
X0300119Y0051338D01*
X0298386Y0053071D01*
X0299496Y0053531D01*
X0299496Y0055063D01*
X0300579Y0056146D01*
X0302111Y0056146D01*
X0303194Y0055063D01*
X0303194Y0053531D01*
X0302111Y0052448D01*
X0300579Y0052448D01*
X0299496Y0053531D01*
X0300606Y0053991D01*
X0300606Y0054603D01*
X0301039Y0055036D01*
X0301651Y0055036D01*
X0302084Y0054603D01*
X0302084Y0053991D01*
X0301651Y0053558D01*
X0301039Y0053558D01*
X0300606Y0053991D01*
D13*
X0218035Y0024138D03*
X0210161Y0024138D03*
X0202287Y0024138D03*
X0194413Y0024138D03*
X0186539Y0024138D03*
X0178665Y0024138D03*
D14*
X0183429Y0096992D03*
X0173429Y0096992D03*
X0163429Y0096992D03*
X0153429Y0096992D03*
X0143429Y0096992D03*
X0133429Y0096992D03*
X0123429Y0096992D03*
X0113429Y0096992D03*
X0103429Y0096992D03*
X0093429Y0096992D03*
X0083429Y0096992D03*
X0133429Y0106992D03*
X0133429Y0116992D03*
X0133429Y0126992D03*
X0133429Y0136992D03*
X0133429Y0146992D03*
X0133429Y0156992D03*
X0123429Y0156992D03*
X0113429Y0156992D03*
X0103429Y0156992D03*
X0093429Y0156992D03*
X0083429Y0156992D03*
X0143429Y0156992D03*
X0153429Y0156992D03*
X0163429Y0156992D03*
X0173429Y0156992D03*
X0183429Y0156992D03*
X0183429Y0146992D03*
X0183429Y0136992D03*
X0183429Y0126992D03*
X0183429Y0116992D03*
X0183429Y0106992D03*
X0193429Y0096992D03*
X0203429Y0096992D03*
X0213429Y0096992D03*
X0223429Y0096992D03*
X0233429Y0096992D03*
X0243429Y0096992D03*
X0253429Y0096992D03*
X0263429Y0096992D03*
X0273429Y0096992D03*
X0283429Y0096992D03*
X0293429Y0096992D03*
X0303429Y0096992D03*
X0313429Y0096992D03*
X0313429Y0156992D03*
X0303429Y0156992D03*
X0293429Y0156992D03*
X0283429Y0156992D03*
X0273429Y0156992D03*
X0263429Y0156992D03*
X0253429Y0156992D03*
X0243429Y0156992D03*
X0233429Y0156992D03*
X0223429Y0156992D03*
X0213429Y0156992D03*
X0203429Y0156992D03*
X0193429Y0156992D03*
D15*
X0178035Y0078173D03*
X0173035Y0078173D03*
X0168035Y0078173D03*
X0163035Y0078173D03*
X0158035Y0078173D03*
X0153035Y0078173D03*
X0148035Y0078173D03*
X0143035Y0078173D03*
X0138035Y0078173D03*
X0133035Y0078173D03*
X0133035Y0041953D03*
X0138035Y0041953D03*
X0143035Y0041953D03*
X0148035Y0041953D03*
X0153035Y0041953D03*
X0158035Y0041953D03*
X0163035Y0041953D03*
X0168035Y0041953D03*
X0173035Y0041953D03*
X0178035Y0041953D03*
X0215713Y0041953D03*
X0220713Y0041953D03*
X0225713Y0041953D03*
X0230713Y0041953D03*
X0235713Y0041953D03*
X0240713Y0041953D03*
X0245713Y0041953D03*
X0250713Y0041953D03*
X0255713Y0041953D03*
X0260713Y0041953D03*
X0260713Y0078173D03*
X0255713Y0078173D03*
X0250713Y0078173D03*
X0245713Y0078173D03*
X0240713Y0078173D03*
X0235713Y0078173D03*
X0230713Y0078173D03*
X0225713Y0078173D03*
X0220713Y0078173D03*
X0215713Y0078173D03*
D16*
X0287996Y0183350D03*
X0287996Y0213350D03*
D17*
X0287996Y0203350D03*
X0287996Y0193350D03*
X0277996Y0193350D03*
X0277996Y0183350D03*
X0277996Y0203350D03*
X0277996Y0213350D03*
D18*
X0300713Y0194020D03*
X0300713Y0182996D03*
X0159472Y0193331D03*
X0159472Y0204354D03*
D19*
X0073350Y0073350D03*
X0323350Y0073350D03*
X0323350Y0323350D03*
X0073350Y0323350D03*
D20*
X0105387Y0291314D03*
X0098315Y0284243D03*
X0091244Y0277172D03*
X0099023Y0269394D03*
X0106094Y0276465D03*
X0113165Y0283536D03*
X0120236Y0290607D03*
X0127307Y0297678D03*
X0119529Y0305456D03*
X0112458Y0298385D03*
X0178350Y0322772D03*
X0188350Y0322772D03*
X0198350Y0322772D03*
X0208350Y0322772D03*
X0218350Y0322772D03*
X0218350Y0333772D03*
X0208350Y0333772D03*
X0198350Y0333772D03*
X0188350Y0333772D03*
X0178350Y0333772D03*
X0269394Y0297678D03*
X0276465Y0290607D03*
X0283536Y0283536D03*
X0291314Y0291314D03*
X0284243Y0298385D03*
X0277172Y0305456D03*
X0298385Y0284243D03*
X0305456Y0277172D03*
X0297678Y0269394D03*
X0290607Y0276465D03*
X0035991Y0255934D03*
X0018191Y0255934D03*
X0018191Y0230334D03*
X0035991Y0230334D03*
D21*
X0042242Y0271572D03*
X0046417Y0275748D03*
X0050593Y0279924D03*
X0054769Y0284100D03*
X0058945Y0288276D03*
X0063121Y0292451D03*
X0047373Y0308199D03*
X0043197Y0304024D03*
X0039021Y0299848D03*
X0034845Y0295672D03*
X0030669Y0291496D03*
X0026493Y0287320D03*
X0088501Y0349328D03*
X0092677Y0353504D03*
X0096853Y0357680D03*
X0101029Y0361856D03*
X0105205Y0366031D03*
X0109381Y0370207D03*
X0287320Y0370207D03*
X0291496Y0366031D03*
X0295672Y0361856D03*
X0299848Y0357680D03*
X0304024Y0353504D03*
X0308199Y0349328D03*
X0349328Y0308199D03*
X0353504Y0304024D03*
X0357680Y0299848D03*
X0361856Y0295672D03*
X0366031Y0291496D03*
X0370207Y0287320D03*
X0354459Y0271572D03*
X0350283Y0275748D03*
X0346108Y0279924D03*
X0341932Y0284100D03*
X0337756Y0288276D03*
X0333580Y0292451D03*
D22*
X0098449Y0211146D03*
X0098449Y0185555D03*
D23*
X0070063Y0238165D02*
X0070063Y0244165D01*
X0060063Y0244165D02*
X0060063Y0238165D01*
X0183114Y0360689D02*
X0183114Y0366689D01*
X0193114Y0367689D02*
X0193114Y0361689D01*
X0203114Y0360689D02*
X0203114Y0366689D01*
X0213114Y0367689D02*
X0213114Y0361689D01*
D24*
X0208193Y0222957D03*
X0188508Y0222957D03*
X0188508Y0173744D03*
X0208193Y0173744D03*
D25*
X0224925Y0198350D03*
X0171776Y0198350D03*
D26*
X0180634Y0198350D03*
X0216067Y0198350D03*
D27*
X0035088Y0121579D03*
X0031888Y0121579D03*
D28*
X0353623Y0084430D03*
X0361975Y0092782D03*
D29*
X0340083Y0130437D03*
X0317445Y0150122D03*
X0295299Y0138803D03*
X0258882Y0151598D03*
X0243626Y0151598D03*
X0218528Y0144709D03*
X0218528Y0130929D03*
X0226894Y0126500D03*
X0228370Y0104354D03*
X0220988Y0067445D03*
X0225909Y0064000D03*
X0233291Y0058587D03*
X0238213Y0058587D03*
X0243134Y0058587D03*
X0250516Y0054650D03*
X0243134Y0050220D03*
X0238213Y0050220D03*
X0233291Y0050220D03*
X0223449Y0054650D03*
X0233291Y0031520D03*
X0233291Y0027583D03*
X0233291Y0023646D03*
X0238213Y0023646D03*
X0238213Y0027583D03*
X0238213Y0031520D03*
X0243134Y0031520D03*
X0243134Y0027583D03*
X0243134Y0023646D03*
X0260850Y0048744D03*
X0277091Y0048744D03*
X0187524Y0067937D03*
X0173252Y0064000D03*
X0167839Y0054157D03*
X0160457Y0050220D03*
X0155535Y0050220D03*
X0150614Y0050220D03*
X0150614Y0058587D03*
X0155535Y0058587D03*
X0160457Y0058587D03*
X0142740Y0067937D03*
X0139564Y0064000D03*
X0136343Y0054157D03*
X0150614Y0031520D03*
X0150614Y0027583D03*
X0150614Y0023646D03*
X0155535Y0023646D03*
X0155535Y0027583D03*
X0155535Y0031520D03*
X0160457Y0031520D03*
X0160457Y0027583D03*
X0160457Y0023646D03*
X0186539Y0014295D03*
X0103370Y0064000D03*
X0112228Y0125516D03*
X0153567Y0148646D03*
X0156520Y0129453D03*
X0053173Y0167346D03*
X0046776Y0167346D03*
X0046776Y0173252D03*
X0046776Y0179157D03*
X0046776Y0198350D03*
X0046776Y0204256D03*
X0046776Y0210161D03*
X0053173Y0210161D03*
X0116947Y0252976D03*
X0073843Y0273154D03*
X0069413Y0277091D03*
X0065969Y0280535D03*
X0173252Y0239689D03*
X0186047Y0239689D03*
X0193429Y0244610D03*
X0197366Y0244610D03*
X0201303Y0244610D03*
X0205240Y0244610D03*
X0209177Y0244610D03*
X0213114Y0244610D03*
X0213114Y0248547D03*
X0209177Y0248547D03*
X0205240Y0248547D03*
X0201303Y0248547D03*
X0197366Y0248547D03*
X0193429Y0248547D03*
X0186539Y0254453D03*
X0186539Y0269709D03*
X0188508Y0273154D03*
X0192445Y0273154D03*
X0196382Y0273154D03*
X0174728Y0272169D03*
X0221480Y0292839D03*
X0221480Y0297268D03*
X0221480Y0301697D03*
X0240181Y0261835D03*
X0240181Y0253469D03*
X0297760Y0224925D03*
X0341559Y0193921D03*
X0346972Y0195398D03*
X0306126Y0177189D03*
M02*
